<?xml version="1.0" encoding="utf-8"?>
<!-- Generator: Adobe Illustrator 24.1.2, SVG Export Plug-In . SVG Version: 6.00 Build 0)  -->
<svg version="1.1" id="Layer_1" xmlns="http://www.w3.org/2000/svg" xmlns:xlink="http://www.w3.org/1999/xlink" x="0px" y="0px"
	 viewBox="0 0 120 60" style="enable-background:new 0 0 120 60;" xml:space="preserve">
<style type="text/css">
	.st0{display:none;fill:url(#SVGID_1_);}
	.st1{fill:#FF7F18;}
</style>
<radialGradient id="SVGID_1_" cx="-805.147" cy="84.9667" r="5.406624e-02" gradientTransform="matrix(733.335 0 0 -710.0016 590493.5 60342.5039)" gradientUnits="userSpaceOnUse">
	<stop  offset="0" style="stop-color:#423325;stop-opacity:0.98"/>
	<stop  offset="1" style="stop-color:#1C0A00"/>
</radialGradient>
<path class="st0" d="M33.9,4.6h52.2v50.7H33.9V4.6z"/>
<path class="st1" d="M33.9,4.6h52.2v50.7H33.9V4.6z M31.5,57.7h56.9V2.3H31.5V57.7z M68.8,22c0-0.2,0.1-0.3,0.3-0.3h3.7
	c0.2,0,0.3,0.1,0.3,0.3v18.7c0,0.2,0,0.3-0.3,0.3h-3.7c-0.2,0-0.3-0.1-0.3-0.3L68.8,22L68.8,22L68.8,22z M68.6,16.6
	c0-1.5,1.1-2.4,2.4-2.4c1.4,0,2.4,1,2.4,2.4c0,1.6-1,2.4-2.5,2.4C69.6,19.1,68.6,18.2,68.6,16.6z M57.9,29.8
	c-0.7-2.6-2.2-8.4-2.8-11.1h0c-0.5,2.8-1.8,7.5-2.8,11.1H57.9z M51.3,33.7l-1.9,7.1c0,0.2-0.1,0.2-0.4,0.2h-3.5
	c-0.2,0-0.3-0.1-0.2-0.4l6.7-23.6c0.1-0.4,0.2-0.8,0.2-2c0-0.2,0.1-0.2,0.2-0.2h5c0.2,0,0.2,0,0.3,0.2l7.5,25.6c0,0.2,0,0.3-0.2,0.3
	h-3.9c-0.2,0-0.3,0-0.4-0.2l-1.9-7.1H51.3L51.3,33.7z"/>
</svg>
