<?xml version="1.0" encoding="utf-8"?>
<!-- Generator: Adobe Illustrator 24.1.2, SVG Export Plug-In . SVG Version: 6.00 Build 0)  -->
<svg version="1.1" id="ps_x5F_cc_x5F_app_x5F_RGB.svg"
	 xmlns="http://www.w3.org/2000/svg" xmlns:xlink="http://www.w3.org/1999/xlink" x="0px" y="0px" viewBox="0 0 120 60"
	 style="enable-background:new 0 0 120 60;" xml:space="preserve">
<style type="text/css">
	.st0{display:none;fill:#2E001E;}
	.st1{fill:#FF2BC2;}
</style>
<path class="st0" d="M33,3.7H87v52.6H33V3.7z"/>
<path class="st1" d="M30.5,1.2v57.5h59V1.2H30.5z M33,3.7H87v52.6H33V3.7z"/>
<path class="st1" d="M73.4,25.4c-0.4-0.2-0.8-0.2-1.4-0.2c-3.1,0-5.2,2.4-5.2,6.3c0,4.5,2.1,6.3,4.9,6.3c0.6,0,1.2-0.1,1.7-0.3
	L73.4,25.4L73.4,25.4z M62.3,31.7c0-5.7,3.7-10.2,9.7-10.2c0.5,0,0.8,0,1.3,0v-6.4c0-0.1,0.1-0.2,0.2-0.2h4c0.2,0,0.2,0.1,0.2,0.2
	v22.5c0,0.7,0,1.5,0.1,2.4c0,0.2,0,0.2-0.1,0.3c-2.1,1-4.2,1.4-6.3,1.4C66.1,41.7,62.3,38.4,62.3,31.7L62.3,31.7z M54,27.7l6.9,13.4
	c0.1,0.2,0,0.4-0.1,0.4h-4.3c-0.3,0-0.4-0.1-0.5-0.3c-1.6-3.2-3.2-6.6-4.8-10.1h0c-1.5,3.3-3.1,6.9-4.7,10.1
	c-0.1,0.2-0.2,0.3-0.4,0.3h-4.1c-0.2,0-0.3-0.2-0.1-0.3l6.7-13l-6.5-12.9c-0.1-0.2,0-0.4,0.2-0.4h4.2c0.2,0,0.4,0,0.4,0.3
	c1.5,3.3,3.1,6.5,4.6,9.8h0c1.4-3.2,3-6.5,4.5-9.7c0.1-0.2,0.2-0.3,0.4-0.3h4c0.2,0,0.3,0.1,0.1,0.4L54,27.7L54,27.7z"/>
</svg>
