<?xml version="1.0" encoding="utf-8"?>
<!-- Generator: Adobe Illustrator 24.1.2, SVG Export Plug-In . SVG Version: 6.00 Build 0)  -->
<svg version="1.1" id="Layer_1" xmlns="http://www.w3.org/2000/svg" xmlns:xlink="http://www.w3.org/1999/xlink" x="0px" y="0px"
	 viewBox="0 0 120 60" style="enable-background:new 0 0 120 60;" xml:space="preserve">
<style type="text/css">
	.st0{fill:#B52E31;}
	.st1{fill:none;stroke:#E23237;stroke-miterlimit:10;}
	.st2{display:none;fill:#B52E31;}
	.st3{opacity:0.9;fill:#E23237;}
</style>
<path class="st0" d="M37.4,37.3V23.8h1.7l8.3,10.9V23.8H49v13.5h-1.7l-8.3-11v11H37.4L37.4,37.3z M62.5,36.8
	c-1.1,0.4-2.3,0.6-3.5,0.6c-4.9,0-7.3-2.3-7.3-7c0-4.4,2.4-6.7,7.1-6.7c1.4,0,2.6,0.2,3.8,0.6v1.5c-1.2-0.5-2.4-0.7-3.6-0.7
	c-3.7,0-5.5,1.8-5.5,5.2c0,3.8,1.8,5.6,5.5,5.6c0.6,0,1.2-0.1,1.9-0.2v-4.5h1.7L62.5,36.8L62.5,36.8z M65.3,32.1v-8.3H67v8.3
	c0,2.6,1.3,3.9,3.9,3.9c2.6,0,3.9-1.3,3.9-3.9v-8.3h1.7v8.3c0,3.5-1.9,5.3-5.6,5.3S65.3,35.6,65.3,32.1L65.3,32.1z M81.4,23.8v12.1
	h7.1v1.4h-8.8V23.8H81.4L81.4,23.8z M91,37.3h-1.8L95.9,22l6.7,15.3h-1.9L99,33.1h-4.5l0.5-1.4h3.4l-2.5-6.1L91,37.3L91,37.3z
	 M104.5,37.3V23.8h5.8c2.6,0,3.9,1.1,3.9,3.2c0,1.8-1.3,3.1-3.8,3.9l4.6,6.4h-2.3l-4.3-6.1v-1.1c2.6-0.4,3.9-1.4,3.9-3
	c0-1.2-0.7-1.9-2.1-1.9h-3.9v12.1L104.5,37.3L104.5,37.3z"/>
<path class="st1" d="M5,20.2l13.9-4.9l14.2,4.9l-2.3,18.3L18.9,45L7.1,38.5L5,20.2z"/>
<path class="st2" d="M33.1,20.1l-14.2-4.9V45l11.9-6.6L33.1,20.1L33.1,20.1z"/>
<path class="st3" d="M18.9,18.7l-8.6,19.2l3.2-0.1l1.7-4.3h7.7l1.9,4.4l3.1,0.1L18.9,18.7L18.9,18.7z M18.9,24.9l2.9,6.1h-5.5
	L18.9,24.9L18.9,24.9z"/>
</svg>
