<?xml version="1.0" encoding="utf-8"?>
<!-- Generator: Adobe Illustrator 24.1.2, SVG Export Plug-In . SVG Version: 6.00 Build 0)  -->
<svg version="1.1" id="Layer_1" xmlns="http://www.w3.org/2000/svg" xmlns:xlink="http://www.w3.org/1999/xlink" x="0px" y="0px"
	 viewBox="0 0 120 60" style="enable-background:new 0 0 120 60;" xml:space="preserve">
<style type="text/css">
	.st0{display:none;fill:none;stroke:#F0DB4F;stroke-width:3;stroke-miterlimit:10;}
	.st1{display:none;fill:#323330;}
	.st2{fill:url(#Shape_3_);}
	.st3{fill:url(#Shape_4_);}
	.st4{fill:url(#Shape_5_);}
	.st5{fill-rule:evenodd;clip-rule:evenodd;fill:url(#Combined-Shape_1_);}
</style>
<path class="st0" d="M35.8,6.9h48.4v46.3H35.8V6.9z"/>
<path class="st1" d="M80.8,43c-0.3-2-1.7-3.8-5.6-5.4c-1.4-0.6-2.9-1.1-3.4-2.1c-0.2-0.6-0.2-0.9-0.1-1.3c0.3-1.2,1.7-1.6,2.8-1.2
	c0.7,0.2,1.4,0.8,1.8,1.7c1.9-1.3,1.9-1.2,3.3-2.1c-0.5-0.8-0.8-1.1-1.1-1.4c-1.2-1.3-2.7-2-5.3-1.9c-0.4,0.1-0.9,0.1-1.3,0.2
	c-1.3,0.3-2.5,1-3.2,1.9c-2.1,2.4-1.5,6.6,1.1,8.4c2.5,1.9,6.3,2.3,6.8,4.1c0.5,2.2-1.6,2.9-3.7,2.6c-1.5-0.3-2.4-1.1-3.3-2.5
	c-1.7,1-1.7,1-3.4,2c0.4,0.9,0.8,1.3,1.5,2.1c3.2,3.3,11.4,3.1,12.8-1.9C80.7,45.9,81.1,44.7,80.8,43z M64,29.5h-4.2
	c0,3.6,0,7.2,0,10.8c0,2.3,0.1,4.4-0.3,5.1c-0.6,1.3-2.2,1.1-2.9,0.9c-0.7-0.4-1.1-0.9-1.5-1.6c-0.1-0.2-0.2-0.4-0.2-0.4
	c-1.1,0.7-2.3,1.4-3.4,2.1c0.6,1.2,1.4,2.2,2.5,2.8c1.6,1,3.7,1.3,6,0.7c1.5-0.4,2.7-1.3,3.4-2.6c1-1.8,0.7-3.9,0.7-6.2
	C64.1,37.2,64,33.3,64,29.5L64,29.5z"/>
<g id="Page-1">
	<g id="logo" transform="translate(-20.000000, -20.000000)">
		<g id="Group-28-Copy-5" transform="translate(20.000000, 20.000000)">
			<g id="Group-27-Copy-3">
				<g id="Group-25">
					<g id="_x32_">
						
							<linearGradient id="Shape_3_" gradientUnits="userSpaceOnUse" x1="-933.3073" y1="1025.0265" x2="-933.1897" y2="1024.9299" gradientTransform="matrix(147.7263 0 0 -198.7057 137923.3594 203697.5469)">
							<stop  offset="0" style="stop-color:#4285EB"/>
							<stop  offset="1" style="stop-color:#2EC7FF"/>
						</linearGradient>
						<path id="Shape" class="st2" d="M57.8,5.6L35.5,27.8c-1.2,1.2-1.2,3.1,0,4.3l22.3,22.3c1.2,1.2,3.1,1.2,4.3,0l9.3-9.3
							c1.1-1.1,1.1-2.8,0-3.9c-1.1-1.1-2.8-1.1-3.9,0l-7.1,7.1c-0.3,0.3-0.8,0.3-1,0L41.7,30.5c-0.3-0.3-0.3-0.8,0-1l17.8-17.8
							c0.3-0.3,0.8-0.3,1,0l7.1,7.1c1.1,1.1,2.8,1.1,3.9,0s1.1-2.8,0-3.9l-9.3-9.3C61,4.4,59,4.4,57.8,5.6z"/>
						
							<linearGradient id="Shape_4_" gradientUnits="userSpaceOnUse" x1="-933.2556" y1="1025.1021" x2="-933.2954" y2="1024.8253" gradientTransform="matrix(147.7263 0 0 -198.7057 137923.3594 203697.5469)">
							<stop  offset="0" style="stop-color:#29CDFF"/>
							<stop  offset="0.3786" style="stop-color:#148EFF"/>
							<stop  offset="1" style="stop-color:#0A60FF"/>
						</linearGradient>
						<path id="Shape_1_" class="st3" d="M57.8,5.6L35.5,27.8c-1.2,1.2-1.2,3.1,0,4.3l22.3,22.3c1.2,1.2,3.1,1.2,4.3,0l9.3-9.3
							c1.1-1.1,1.1-2.8,0-3.9c-1.1-1.1-2.8-1.1-3.9,0l-7.1,7.1c-0.3,0.3-0.8,0.3-1,0L41.7,30.5c-0.3-0.3-0.3-0.8,0-1l17.8-17.8
							c0.7-0.6,2-1.9,3.7-2.2c1.3-0.2,2.8,0.3,4.3,1.5c-1-1-2.8-2.8-5.4-5.4C61,4.4,59,4.4,57.8,5.6z"/>
					</g>
					
						<linearGradient id="Shape_5_" gradientUnits="userSpaceOnUse" x1="-922.2959" y1="1018.0422" x2="-922.431" y2="1017.7096" gradientTransform="matrix(49.2049 0 0 -77.4363 45462.8516 78850.9531)">
						<stop  offset="0" style="stop-color:#FA816E"/>
						<stop  offset="0.4147" style="stop-color:#F74A5C"/>
						<stop  offset="1" style="stop-color:#F51D2C"/>
					</linearGradient>
					<path id="Shape_2_" class="st4" d="M73.7,39.1c1.1,1.1,2.8,1.1,3.9,0l6.9-6.9c1.2-1.2,1.2-3.1,0-4.3l-7-6.9
						c-1.1-1.1-2.8-1.1-3.9,0c-1.1,1.1-1.1,2.8,0,3.9l4.7,4.7c0.3,0.3,0.3,0.8,0,1l-4.6,4.6C72.6,36.3,72.6,38.1,73.7,39.1z"/>
				</g>
				
					<linearGradient id="Combined-Shape_1_" gradientUnits="userSpaceOnUse" x1="-920.3867" y1="1010.6401" x2="-920.4829" y2="1010.2559" gradientTransform="matrix(47.2004 0 0 -47.1616 43505.2813 47683.2734)">
					<stop  offset="0" style="stop-color:#FA8E7D"/>
					<stop  offset="0.5126" style="stop-color:#F74A5C"/>
					<stop  offset="1" style="stop-color:#F51D2C"/>
				</linearGradient>
				<ellipse id="Combined-Shape" class="st5" cx="60.1" cy="30.1" rx="6" ry="6"/>
			</g>
		</g>
	</g>
</g>
</svg>
