<?xml version="1.0" encoding="utf-8"?>
<!-- Generator: Adobe Illustrator 24.1.2, SVG Export Plug-In . SVG Version: 6.00 Build 0)  -->
<svg version="1.1"
	 id="svg36" xmlns:cc="http://creativecommons.org/ns#" xmlns:dc="http://purl.org/dc/elements/1.1/" xmlns:inkscape="http://www.inkscape.org/namespaces/inkscape" xmlns:rdf="http://www.w3.org/1999/02/22-rdf-syntax-ns#" xmlns:sodipodi="http://sodipodi.sourceforge.net/DTD/sodipodi-0.dtd" xmlns:svg="http://www.w3.org/2000/svg"
	 xmlns="http://www.w3.org/2000/svg" xmlns:xlink="http://www.w3.org/1999/xlink" x="0px" y="0px" viewBox="0 0 120 60"
	 style="enable-background:new 0 0 120 60;" xml:space="preserve">
<style type="text/css">
	.st0{fill-rule:evenodd;clip-rule:evenodd;fill:#324A5E;}
	.st1{fill-rule:evenodd;clip-rule:evenodd;fill:#21313E;}
	.st2{fill-rule:evenodd;clip-rule:evenodd;fill:#FFFFFF;}
	.st3{display:none;fill-rule:evenodd;clip-rule:evenodd;fill:#253645;}
	.st4{display:none;fill-rule:evenodd;clip-rule:evenodd;fill:#FFFFFF;}
	.st5{display:none;}
	.st6{display:inline;fill-rule:evenodd;clip-rule:evenodd;fill:#253645;}
	.st7{display:inline;fill-rule:evenodd;clip-rule:evenodd;fill:#FFFFFF;}
</style>
<g id="g32">
	<g>
		<path id="path8" class="st0" d="M73.9,56.2H48.7c-1,0-1.7-0.7-1.7-1.6l0,0c0-1,0.7-1.7,1.7-1.7h25.2c0.9,0,1.7,0.7,1.7,1.7l0,0
			C75.5,55.5,74.7,56.2,73.9,56.2z"/>
		<rect id="rect10" x="54.5" y="44.1" class="st1" width="13.5" height="8.7"/>
		<rect id="rect12" x="29.4" y="3.7" class="st0" width="63.7" height="43.9"/>
		<rect id="rect14" x="33.8" y="8.1" class="st2" width="54.9" height="35.1"/>
	</g>
	<path id="path16" class="st3" d="M94.6,35.1h-14v22h14V35.1z M88.6,58.8c0-0.6-0.4-1-1-1c-0.5,0-1,0.4-1,1c0,0.5,0.4,1,1,1
		C88.2,59.7,88.6,59.3,88.6,58.8z M85.4,33.7c0,0.1,0.1,0.2,0.2,0.2h4.1c0.1,0,0.2-0.1,0.2-0.2c0-0.1-0.1-0.2-0.2-0.2h-4.1
		C85.5,33.5,85.4,33.6,85.4,33.7z M96,34v24.7c0,1-0.9,1.9-1.9,1.9H81.3c-1,0-1.9-0.9-1.9-1.9V34c0-1,0.9-1.9,1.9-1.9h12.8
		C95.1,32.1,96,33,96,34L96,34z"/>
	<rect id="rect18" x="80.5" y="34.9" class="st4" width="14.2" height="22.5"/>
	<path id="path20" class="st4" d="M87.7,57.7c-0.5,0-1,0.4-1,1c0,0.5,0.4,1,1,1c0.5,0,1-0.4,1-1C88.6,58.2,88.2,57.7,87.7,57.7z"/>
	<path id="path22" class="st4" d="M85.6,33.9h4.1c0.1,0,0.2-0.1,0.2-0.2c0-0.1-0.1-0.2-0.2-0.2h-4.1c-0.1,0-0.2,0.1-0.2,0.2
		C85.4,33.9,85.5,33.9,85.6,33.9z"/>
	<g class="st5">
		<path id="path24" class="st6" d="M43.5,35.1H25.2v22h18.3L43.5,35.1L43.5,35.1z M29.9,33.7c0,0.1,0.1,0.2,0.2,0.2h8.4
			c0.1,0,0.3-0.1,0.3-0.2c0-0.1-0.1-0.2-0.3-0.2h-8.4C30,33.5,29.9,33.6,29.9,33.7z M44.9,34v24.7c0,1-0.9,1.9-2,1.9H25.8
			c-1,0-1.9-0.9-1.9-1.9V34c0-1,0.9-1.9,1.9-1.9h17.1C44,32.1,44.9,33,44.9,34L44.9,34z"/>
		<path id="path26" class="st7" d="M34.4,57.7c-0.6,0-1,0.4-1,1c0,0.5,0.4,1,1,1c0.5,0,1-0.4,1-1C35.4,58.2,34.9,57.7,34.4,57.7z"/>
		<path id="path28" class="st7" d="M30.2,33.9h8.4c0.1,0,0.3-0.1,0.3-0.2c0-0.1-0.1-0.2-0.3-0.2h-8.4c-0.1,0-0.2,0.1-0.2,0.2
			C29.9,33.9,30,33.9,30.2,33.9z"/>
		<rect id="rect30" x="25.2" y="35.1" class="st7" width="18.3" height="22"/>
	</g>
</g>
<g id="Layer_1" transform="translate(-22.301,-22.31)" class="st5">
</g>
</svg>
