<?xml version="1.0" encoding="utf-8"?>
<!-- Generator: Adobe Illustrator 24.1.2, SVG Export Plug-In . SVG Version: 6.00 Build 0)  -->
<svg version="1.1" id="Layer_1" xmlns="http://www.w3.org/2000/svg" xmlns:xlink="http://www.w3.org/1999/xlink" x="0px" y="0px"
	 viewBox="0 0 120 60" style="enable-background:new 0 0 120 60;" xml:space="preserve">
<path d="M68.9,23H58.3V2.3h10.6c5.7,0,10.4,4.7,10.4,10.4S74.6,23,68.9,23L68.9,23z M61.7,19.6h7.2c3.8,0,7-3.1,7-7s-3.1-7-7-7h-7.2
	L61.7,19.6L61.7,19.6z M61.7,23H51.1c-5.7,0-10.4-4.7-10.4-10.4S45.4,2.3,51.1,2.3h10.6L61.7,23L61.7,23z M51.1,5.7
	c-3.8,0-7,3.1-7,7s3.1,7,7,7h7.2v-14C58.3,5.7,51.1,5.7,51.1,5.7z M61.7,40.4H51.1c-5.7,0-10.4-4.7-10.4-10.4s4.7-10.4,10.4-10.4
	h10.6L61.7,40.4L61.7,40.4z M51.1,23c-3.8,0-7,3.1-7,7s3.1,7,7,7h7.2V23H51.1z M51.1,57.7c-5.8,0-10.4-4.7-10.4-10.4
	S45.4,37,51.1,37h10.6v10.3C61.7,53,57,57.7,51.1,57.7L51.1,57.7z M51.1,40.4c-3.9,0-7,3.1-7,7c0,3.8,3.2,7,7,7
	c3.9,0,7.2-3.2,7.2-7.1v-6.9H51.1z M68.9,40.4h-0.2c-5.7,0-10.4-4.7-10.4-10.4s4.7-10.4,10.4-10.4h0.2c5.7,0,10.4,4.7,10.4,10.4
	S74.6,40.4,68.9,40.4z M68.7,23c-3.8,0-7,3.1-7,7s3.1,7,7,7h0.2c3.8,0,7-3.1,7-7s-3.1-7-7-7H68.7L68.7,23z"/>
</svg>
