<?xml version="1.0" encoding="utf-8"?>
<!-- Generator: Adobe Illustrator 24.1.2, SVG Export Plug-In . SVG Version: 6.00 Build 0)  -->
<svg version="1.1" id="Layer_1" xmlns="http://www.w3.org/2000/svg" xmlns:xlink="http://www.w3.org/1999/xlink" x="0px" y="0px"
	 viewBox="0 0 120 60" style="enable-background:new 0 0 120 60;" xml:space="preserve">
<style type="text/css">
	.st0{fill:#0ACF83;}
	.st1{fill:#A259FF;}
	.st2{fill:#F24E1E;}
	.st3{fill:#FF7262;}
	.st4{fill:#1ABCFE;}
</style>
<g>
	<desc>Created using Figma</desc>
	<path id="path0_fill" class="st0" d="M50.2,59.4c5.4,0,9.8-4.4,9.8-9.8v-9.8h-9.8c-5.4,0-9.8,4.4-9.8,9.8S44.8,59.4,50.2,59.4z"/>
	<path id="path1_fill" class="st1" d="M40.4,30c0-5.4,4.4-9.8,9.8-9.8H60v19.6h-9.8C44.8,39.8,40.4,35.4,40.4,30z"/>
	<path id="path1_fill_1_" class="st2" d="M40.4,10.4c0-5.4,4.4-9.8,9.8-9.8H60v19.6h-9.8C44.8,20.2,40.4,15.8,40.4,10.4z"/>
	<path id="path2_fill" class="st3" d="M60,0.6h9.8c5.4,0,9.8,4.4,9.8,9.8s-4.4,9.8-9.8,9.8H60V0.6z"/>
	<path id="path3_fill" class="st4" d="M79.6,30c0,5.4-4.4,9.8-9.8,9.8c-5.4,0-9.8-4.4-9.8-9.8s4.4-9.8,9.8-9.8
		C75.2,20.2,79.6,24.6,79.6,30z"/>
</g>
</svg>
