<?xml version="1.0" encoding="utf-8"?>
<!-- Generator: Adobe Illustrator 24.1.2, SVG Export Plug-In . SVG Version: 6.00 Build 0)  -->
<svg version="1.1" id="svg4" xmlns:svg="http://www.w3.org/2000/svg"
	 xmlns="http://www.w3.org/2000/svg" xmlns:xlink="http://www.w3.org/1999/xlink" x="0px" y="0px" viewBox="0 0 120 60"
	 style="enable-background:new 0 0 120 60;" xml:space="preserve">
<path id="path2" d="M22.3,48.3h6.3V21.5h-6.3V48.3z M25.5,18c2,0,3.5-1.5,3.5-3.4c0-1.9-1.5-3.4-3.5-3.4c-1.9,0-3.5,1.5-3.5,3.4
	C22,16.5,23.5,18,25.5,18z M49.6,11.2c-10.6,0-17.3,7.2-17.3,18.8s6.7,18.8,17.3,18.8c10.6,0,17.3-7.2,17.3-18.8
	S60.2,11.2,49.6,11.2z M49.6,16.8c6.5,0,10.6,5.2,10.6,13.3c0,8.1-4.1,13.3-10.6,13.3c-6.5,0-10.6-5.2-10.6-13.3
	C38.9,21.9,43,16.8,49.6,16.8z M69.5,38c0.3,6.7,5.8,10.9,14.2,10.9c8.8,0,14.4-4.3,14.4-11.3c0-5.4-3.1-8.5-10.5-10.2l-4.2-1
	C78.8,25.4,77,24,77,21.6c0-3,2.8-5.1,6.9-5.1c4.2,0,7,2,7.3,5.5h6.2c-0.2-6.4-5.5-10.8-13.5-10.8c-7.9,0-13.6,4.4-13.6,10.8
	c0,5.2,3.2,8.4,9.9,10l4.7,1.1c4.6,1.1,6.5,2.6,6.5,5.2c0,3-3.1,5.2-7.4,5.2c-4.4,0-7.8-2.2-8.2-5.6L69.5,38L69.5,38z"/>
</svg>
