<?xml version="1.0" encoding="utf-8"?>
<!-- Generator: Adobe Illustrator 24.1.2, SVG Export Plug-In . SVG Version: 6.00 Build 0)  -->
<svg version="1.1" id="Layer_1" xmlns="http://www.w3.org/2000/svg" xmlns:xlink="http://www.w3.org/1999/xlink" x="0px" y="0px"
	 viewBox="0 0 120 60" style="enable-background:new 0 0 120 60;" xml:space="preserve">
<style type="text/css">
	.st0{fill:none;stroke:#F0DB4F;stroke-width:3;stroke-miterlimit:10;}
	.st1{fill:#323330;}
</style>
<path class="st0" d="M35.8,6.9h48.4v46.3H35.8V6.9z"/>
<path class="st1" d="M80.8,43c-0.3-2-1.7-3.8-5.6-5.4c-1.4-0.6-2.9-1.1-3.4-2.1c-0.2-0.6-0.2-0.9-0.1-1.3c0.3-1.2,1.7-1.6,2.8-1.2
	c0.7,0.2,1.4,0.8,1.8,1.7c1.9-1.3,1.9-1.2,3.3-2.1c-0.5-0.8-0.8-1.1-1.1-1.4c-1.2-1.3-2.7-2-5.3-1.9c-0.4,0.1-0.9,0.1-1.3,0.2
	c-1.3,0.3-2.5,1-3.2,1.9c-2.1,2.4-1.5,6.6,1.1,8.4c2.5,1.9,6.3,2.3,6.8,4.1c0.5,2.2-1.6,2.9-3.7,2.6c-1.5-0.3-2.4-1.1-3.3-2.5
	c-1.7,1-1.7,1-3.4,2c0.4,0.9,0.8,1.3,1.5,2.1c3.2,3.3,11.4,3.1,12.8-1.9C80.7,45.9,81.1,44.7,80.8,43z M64,29.5h-4.2
	c0,3.6,0,7.2,0,10.8c0,2.3,0.1,4.4-0.3,5.1c-0.6,1.3-2.2,1.1-2.9,0.9c-0.7-0.4-1.1-0.9-1.5-1.6c-0.1-0.2-0.2-0.4-0.2-0.4
	c-1.1,0.7-2.3,1.4-3.4,2.1c0.6,1.2,1.4,2.2,2.5,2.8c1.6,1,3.7,1.3,6,0.7c1.5-0.4,2.7-1.3,3.4-2.6c1-1.8,0.7-3.9,0.7-6.2
	C64.1,37.2,64,33.3,64,29.5L64,29.5z"/>
</svg>
