<?xml version="1.0" encoding="utf-8"?>
<!-- Generator: Adobe Illustrator 24.1.2, SVG Export Plug-In . SVG Version: 6.00 Build 0)  -->
<svg version="1.1"
	 id="svg30" xmlns:cc="http://creativecommons.org/ns#" xmlns:dc="http://purl.org/dc/elements/1.1/" xmlns:inkscape="http://www.inkscape.org/namespaces/inkscape" xmlns:rdf="http://www.w3.org/1999/02/22-rdf-syntax-ns#" xmlns:sodipodi="http://sodipodi.sourceforge.net/DTD/sodipodi-0.dtd" xmlns:svg="http://www.w3.org/2000/svg"
	 xmlns="http://www.w3.org/2000/svg" xmlns:xlink="http://www.w3.org/1999/xlink" x="0px" y="0px" viewBox="0 0 120 60"
	 style="enable-background:new 0 0 120 60;" xml:space="preserve">
<style type="text/css">
	.st0{fill-rule:evenodd;clip-rule:evenodd;fill:#253645;}
	.st1{fill-rule:evenodd;clip-rule:evenodd;fill:#FFFFFF;}
</style>
<g>
	<g>
		<path id="path24_1_" class="st0" d="M69,11.5H38.2v37H69L69,11.5L69,11.5z M46.1,9.2c0,0.2,0.1,0.4,0.4,0.4h14.2
			c0.2,0,0.5-0.1,0.5-0.4c0-0.2-0.2-0.4-0.5-0.4H46.5C46.3,8.8,46.1,8.9,46.1,9.2z M71.4,9.7v41.7c0,1.7-1.5,3.2-3.3,3.2H39.2
			c-1.7,0-3.2-1.5-3.2-3.2V9.7c0-1.7,1.5-3.2,3.2-3.2H68C69.9,6.4,71.4,7.9,71.4,9.7L71.4,9.7z"/>
		<path id="path26" class="st1" d="M53.7,49.6c-1,0-1.6,0.7-1.6,1.7c0,0.9,0.6,1.6,1.6,1.6c0.9,0,1.6-0.7,1.6-1.6
			C55.3,50.4,54.6,49.6,53.7,49.6z"/>
		<path id="path28" class="st1" d="M46.5,9.5h14.2c0.2,0,0.5-0.1,0.5-0.4c0-0.2-0.2-0.4-0.5-0.4H46.5c-0.2,0-0.4,0.1-0.4,0.4
			C46.1,9.4,46.3,9.5,46.5,9.5z"/>
		<rect id="rect30" x="38.2" y="11.5" class="st1" width="30.8" height="37"/>
	</g>
	<g>
		<g id="g26">
			<path id="path18" class="st0" d="M85.8,23.1H67.5v28.8h18.3V23.1z M77.9,54c0-0.7-0.5-1.3-1.2-1.3s-1.2,0.6-1.2,1.3
				s0.5,1.2,1.2,1.2C77.4,55.3,77.9,54.7,77.9,54z M73.7,21.2c0,0.2,0.1,0.3,0.3,0.3h5.4c0.1,0,0.3-0.1,0.3-0.3
				c0-0.1-0.1-0.3-0.3-0.3H74C73.8,20.9,73.7,21.1,73.7,21.2z M87.5,21.6V54c0,1.4-1.2,2.5-2.6,2.5H68.3c-1.4,0-2.6-1.1-2.6-2.5
				V21.6c0-1.4,1.2-2.5,2.6-2.5H85C86.3,19.1,87.5,20.2,87.5,21.6z"/>
			<rect id="rect20" x="67.3" y="22.7" class="st1" width="18.7" height="29.5"/>
			<path id="path22" class="st1" d="M76.6,52.7c-0.7,0-1.2,0.6-1.2,1.3s0.5,1.2,1.2,1.2s1.2-0.6,1.2-1.2
				C77.9,53.3,77.4,52.7,76.6,52.7z"/>
			<path id="path24" class="st1" d="M73.9,21.5h5.4c0.1,0,0.3-0.1,0.3-0.3c0-0.1-0.1-0.3-0.3-0.3h-5.4c-0.1,0-0.3,0.2-0.3,0.3
				C73.7,21.4,73.8,21.5,73.9,21.5z"/>
		</g>
		<g id="Layer_1" transform="translate(-22.139,-22.31)">
		</g>
	</g>
</g>
</svg>
