<?xml version="1.0" encoding="utf-8"?>
<!-- Generator: Adobe Illustrator 24.1.2, SVG Export Plug-In . SVG Version: 6.00 Build 0)  -->
<svg version="1.1" id="Layer_1" xmlns="http://www.w3.org/2000/svg" xmlns:xlink="http://www.w3.org/1999/xlink" x="0px" y="0px"
	 viewBox="0 0 120 60" style="enable-background:new 0 0 120 60;" xml:space="preserve">
<style type="text/css">
	.st0{display:none;fill:#0C0824;}
	.st1{fill:#31C5F0;}
</style>
<path class="st0" d="M33.3,4.1h53.3v51.9H33.3V4.1z"/>
<path class="st1" d="M33.3,4.1h53.3v51.9H33.3V4.1z M30.9,58.3h58.2V1.7H30.9V58.3z M70.1,24.9c-1.9,0-2.6,1-2.6,1.8
	c0,0.9,0.4,1.5,3,2.8c3.8,1.8,5,3.6,5,6.2c0,3.9-3,6-7,6c-1.7,0.1-3.4-0.3-5-1c-0.2-0.1-0.2-0.2-0.2-0.4v-3.6c0-0.2,0.1-0.3,0.3-0.2
	c1.5,0.9,3.1,1.4,4.9,1.4c1.9,0,2.7-0.8,2.7-1.9c0-0.9-0.6-1.6-3-2.9c-3.4-1.6-4.9-3.3-4.9-6.1c0-3.1,2.4-5.7,6.7-5.7
	c1.5-0.1,3,0.2,4.3,0.7c0.2,0.1,0.3,0.3,0.2,0.5v3.3c0,0.2-0.1,0.3-0.4,0.2C73.1,25.3,71.6,24.9,70.1,24.9L70.1,24.9z M49.3,27.8
	c0.6,0,1,0,2,0c2.8,0,5.5-1,5.5-4.8c0-3.1-1.9-4.6-5.1-4.6c-1,0-1.9,0-2.3,0.1L49.3,27.8z M45,14.9c0-0.2,0.3-0.3,0.5-0.3
	c1.6-0.1,3.9-0.1,6.3-0.1c6.7,0,9.3,3.7,9.3,8.4c0,6.2-4.5,8.8-9.9,8.8c-0.9,0-1.2,0-1.9,0v9.3c0,0.2-0.1,0.3-0.3,0.3h-3.7
	c-0.2,0-0.3-0.1-0.3-0.3L45,14.9L45,14.9z"/>
</svg>
