<?xml version="1.0" encoding="utf-8"?>
<!-- Generator: Adobe Illustrator 24.1.2, SVG Export Plug-In . SVG Version: 6.00 Build 0)  -->
<svg version="1.1" id="Layer_1" xmlns="http://www.w3.org/2000/svg" xmlns:xlink="http://www.w3.org/1999/xlink" x="0px" y="0px"
	 viewBox="0 0 120 60" style="enable-background:new 0 0 120 60;" xml:space="preserve">
<g>
	<path d="M25.5,18.1h12.2c3.6,0,6.2,1.1,7.8,3.1c1.6,2,2.1,4.8,1.6,8.3c-0.2,1.6-0.7,3.2-1.4,4.7c-0.7,1.5-1.7,2.9-2.9,4.2
		c-1.5,1.6-3.1,2.6-4.9,3c-1.7,0.4-3.5,0.6-5.4,0.6H27l-1.7,8.6H19L25.5,18.1L25.5,18.1 M30.8,23.2l-2.7,13.6c0.2,0,0.4,0,0.5,0
		c0.2,0,0.4,0,0.6,0c2.9,0,5.3-0.3,7.3-0.9c1.9-0.6,3.2-2.8,3.9-6.6c0.5-3.2,0-5-1.6-5.5c-1.6-0.5-3.6-0.7-6-0.7c-0.4,0-0.7,0-1,0
		C31.4,23.3,31.1,23.3,30.8,23.2L30.8,23.2"/>
	<path d="M54.2,9.4h6.3l-1.8,8.7h5.6c3.1,0.1,5.4,0.7,6.9,1.9c1.5,1.2,2,3.5,1.4,6.9l-3,15.1h-6.4l2.9-14.4c0.3-1.5,0.2-2.6-0.3-3.2
		s-1.5-1-3.1-1l-5,0L53.9,42h-6.3L54.2,9.4L54.2,9.4"/>
	<path d="M79.3,18.1h12.2c3.6,0,6.2,1.1,7.8,3.1s2.1,4.8,1.6,8.3c-0.2,1.6-0.7,3.2-1.4,4.7c-0.7,1.5-1.7,2.9-2.9,4.2
		c-1.5,1.6-3.1,2.6-4.9,3c-1.7,0.4-3.5,0.6-5.4,0.6h-5.4l-1.7,8.6h-6.3L79.3,18.1L79.3,18.1 M84.6,23.2l-2.7,13.6c0.2,0,0.4,0,0.5,0
		c0.2,0,0.4,0,0.6,0c2.9,0,5.3-0.3,7.3-0.9c1.9-0.6,3.2-2.8,3.9-6.6c0.5-3.2,0-5-1.6-5.5c-1.6-0.5-3.6-0.7-6-0.7c-0.4,0-0.7,0-1,0
		C85.2,23.3,84.9,23.3,84.6,23.2L84.6,23.2"/>
</g>
</svg>
