<?xml version="1.0" encoding="utf-8"?>
<!-- Generator: Adobe Illustrator 24.1.2, SVG Export Plug-In . SVG Version: 6.00 Build 0)  -->
<svg version="1.1" id="Layer_1" xmlns="http://www.w3.org/2000/svg" xmlns:xlink="http://www.w3.org/1999/xlink" x="0px" y="0px"
	 viewBox="0 0 120 60" style="enable-background:new 0 0 120 60;" xml:space="preserve">
<style type="text/css">
	.st0{fill-rule:evenodd;clip-rule:evenodd;fill:#FFC100;}
</style>
<desc>Created with Sketch.</desc>
<g id="Icons">
	<g id="Color-" transform="translate(-697.000000, -860.000000)">
		<path id="Sketch" class="st0" d="M786.9,875.4l-9.3-7.1c-0.2-0.2-0.4-0.4-0.7-0.5l-6.3-4.8c-0.5-0.4-1-0.5-1.6-0.5h-24
			c-0.6,0-1.2,0.2-1.6,0.5l-16.3,12.4c-1.2,0.9-1.4,2.6-0.5,3.8l28.3,37.2c1.1,1.4,3.2,1.4,4.3,0l28.3-37.2
			C788.4,878,788.1,876.3,786.9,875.4L786.9,875.4z M745.9,867.9h22.1l3,2.3l-3.9,2.9l-19.3-0.2l-4.9-2.9L745.9,867.9L745.9,867.9z
			 M748.6,878.4l18.1,0.1l5.1,7.1h-28L748.6,878.4L748.6,878.4z M738.4,873.6l4.9,2.9l-5.7,8.4l-5.2-6.8L738.4,873.6L738.4,873.6z
			 M757,910.4L742.3,891h29.5L757,910.4L757,910.4z M777.1,883.9l-5.4-7.5l3.8-2.8l5.9,4.5L777.1,883.9L777.1,883.9z"/>
	</g>
</g>
</svg>
