<svg class="ml-3 ml-md-0" xmlns="http://www.w3.org/2000/svg" xmlns:xlink="http://www.w3.org/1999/xlink" x="0px" y="0px" viewBox="0 0 300 86" style="enable-background:new 0 0 300 86;" xml:space="preserve">
                    <style type="text/css">
                        .icon-grp-color {
                            fill: #FCDC00;
                        }

                        .icon-grp-bg {
                            fill: #173647;
                        }

                        .logo-text {
                            fill: #173647;
                        }
                    </style>
                    <g id="icon-grp">
                        <path id="fill" class="icon-grp-color" d="M38.3,72C19.2,72,3.7,56.5,3.7,37.4S19.2,2.9,38.3,2.9s34.6,15.5,34.6,34.6S57.4,72,38.3,72z"></path>
                        <path id="border" class="icon-grp-bg" d="M38.3,4.6c18.1,0,32.8,14.7,32.8,32.8c0,18.1-14.7,32.8-32.8,32.8c-18.1,0-32.8-14.7-32.8-32.8
                			C5.5,19.3,20.2,4.6,38.3,4.6 M38.3,1.1C18.3,1.1,2,17.4,2,37.4s16.3,36.3,36.3,36.3c20,0,36.3-16.3,36.3-36.3S58.3,1.1,38.3,1.1
                			L38.3,1.1z"></path>
                        <path id="icon" class="icon-grp-bg" d="M59.2,36l2.8-4l-3-7.3l-4.8-0.9l-2.1-2.1l-0.8-4.8l-7.4-3.1l-4,2.8l-3,0l-4-2.8l-7.4,3l-0.9,4.8
                			l-2.2,2.1l-4.8,0.9l-3.1,7.3l2.8,4l0,3l-2.8,4l3,7.4l4.8,0.9l2.1,2.1l0.9,4.8l7.3,3.1l4-2.8h3l4,2.8l7.4-3l0.9-4.8l2.2-2.1l4.8-0.8
                			l3.1-7.3l-2.8-4V36z M58.1,43.5l-1.6,3.9l-4,0.7l-3.7,3.7l-0.7,4l-3.9,1.6l-3.3-2.3h-5.2l-3.4,2.3l-3.9-1.6l-0.7-4l-3.6-3.7l-4-0.7
                			l-1.6-3.9l2.3-3.3l0-5.2l-2.3-3.4l1.6-3.9l4-0.7l3.7-3.7l0.7-4l3.9-1.6l3.3,2.3l5.2,0l3.4-2.3l3.9,1.6l0.7,4l3.7,3.7l4,0.7l1.6,3.9
                			l-2.3,3.4v5.2L58.1,43.5z M51.2,38.4c0,7.1-5.8,12.9-12.9,12.9c-7.1,0-12.9-5.8-12.9-12.9c0-3.4,1.3-6.7,3.8-9.1l2.4,2.4
                			c-1.8,1.8-2.8,4.2-2.8,6.7c0,3.8,2.2,7,5.4,8.5l4.7-7.4L31.7,38l7.9-14.1l3,1.7l-5.6,10l7.6,1.7l-6.7,10.6c0.2,0,0.3,0,0.5,0
                			c5.2,0,9.4-4.2,9.4-9.4c0-2.8-1.2-5.4-3.4-7.2l2.2-2.7C49.5,31,51.2,34.6,51.2,38.4z"></path>
                    </g>
                    <path id="soupui" class="logo-text" d="M112.8,43.4c0,2.9-1.1,5.2-3.2,6.9c-2.1,1.6-5,2.5-8.7,2.5c-4,0-7-0.5-9.1-1.5v-3.7
                		c1.4,0.6,2.9,1,4.5,1.4c1.6,0.3,3.2,0.5,4.8,0.5c2.6,0,4.5-0.5,5.8-1.5c1.3-1,2-2.3,2-4.1c0-1.2-0.2-2.1-0.7-2.8
                		c-0.5-0.7-1.2-1.4-2.3-2c-1.1-0.6-2.7-1.3-5-2.1c-3.1-1.1-5.3-2.4-6.6-3.9c-1.3-1.5-2-3.5-2-6c0-2.6,1-4.6,2.9-6.1
                		c1.9-1.5,4.5-2.3,7.7-2.3c3.3,0,6.4,0.6,9.1,1.8l-1.2,3.4c-2.8-1.2-5.4-1.7-8-1.7c-2.1,0-3.7,0.4-4.8,1.3c-1.2,0.9-1.7,2.1-1.7,3.7
                		c0,1.2,0.2,2.1,0.6,2.8c0.4,0.7,1.1,1.4,2.2,2c1,0.6,2.6,1.3,4.6,2c3.5,1.2,5.9,2.6,7.2,4C112.2,39.2,112.8,41.1,112.8,43.4z
                		M138.9,39.7c0,4.1-1,7.3-3.1,9.5c-2.1,2.3-4.9,3.4-8.5,3.4c-2.2,0-4.2-0.5-6-1.6c-1.7-1-3.1-2.6-4-4.5c-0.9-2-1.4-4.3-1.4-6.9
                		c0-4.1,1-7.2,3.1-9.5c2-2.3,4.9-3.4,8.5-3.4c3.5,0,6.3,1.2,8.3,3.5C137.9,32.6,138.9,35.8,138.9,39.7z M119.8,39.7
                		c0,3.2,0.6,5.6,1.9,7.3c1.3,1.7,3.2,2.5,5.6,2.5c2.5,0,4.4-0.8,5.6-2.5c1.3-1.7,1.9-4.1,1.9-7.3c0-3.2-0.6-5.6-1.9-7.2
                		c-1.3-1.6-3.2-2.5-5.7-2.5c-2.5,0-4.3,0.8-5.6,2.4C120.5,34.1,119.8,36.5,119.8,39.7z M159,52.2l-0.8-3.6H158
                		c-1.2,1.6-2.5,2.6-3.7,3.2c-1.2,0.6-2.8,0.8-4.6,0.8c-2.5,0-4.4-0.6-5.8-1.9c-1.4-1.3-2.1-3.1-2.1-5.5c0-5,4-7.7,12.1-7.9l4.2-0.1
                		v-1.6c0-2-0.4-3.4-1.3-4.3c-0.8-0.9-2.2-1.4-4-1.4c-2.1,0-4.4,0.6-7.1,1.9l-1.2-2.9c1.2-0.7,2.6-1.2,4-1.6c1.5-0.4,2.9-0.6,4.4-0.6
                		c3,0,5.2,0.7,6.6,2c1.4,1.3,2.2,3.4,2.2,6.4v17.1H159z M150.4,49.6c2.4,0,4.2-0.6,5.6-1.9c1.3-1.3,2-3.1,2-5.4V40l-3.8,0.2
                		c-3,0.1-5.2,0.6-6.5,1.4c-1.3,0.8-2,2.1-2,3.9c0,1.4,0.4,2.4,1.2,3.1C147.8,49.2,148.9,49.6,150.4,49.6z M178.9,52.7
                		c-1.6,0-3.1-0.3-4.5-0.9c-1.3-0.6-2.5-1.5-3.4-2.8h-0.3c0.2,1.5,0.3,2.8,0.3,4.2v10.3h-3.8V27.2h3.1l0.5,3.4h0.2
                		c1-1.4,2.1-2.4,3.4-3c1.3-0.6,2.8-0.9,4.4-0.9c3.3,0,5.9,1.1,7.7,3.4c1.8,2.3,2.7,5.4,2.7,9.5c0,4.1-0.9,7.3-2.7,9.6
                		C184.7,51.6,182.2,52.7,178.9,52.7z M178.4,30c-2.6,0-4.4,0.7-5.5,2.1c-1.1,1.4-1.7,3.7-1.8,6.8v0.8c0,3.5,0.6,6,1.8,7.5
                		c1.2,1.5,3,2.3,5.6,2.3c2.2,0,3.9-0.9,5.1-2.6c1.2-1.7,1.8-4.2,1.8-7.2c0-3.1-0.6-5.5-1.8-7.2C182.3,30.8,180.6,30,178.4,30z
                		M219.4,18.9v21.6c0,3.8-1.1,6.8-3.4,9c-2.3,2.2-5.5,3.3-9.5,3.3c-4,0-7.1-1.1-9.3-3.3c-2.2-2.2-3.3-5.2-3.3-9V18.9h3.9v21.8
                		c0,2.8,0.8,4.9,2.3,6.4c1.5,1.5,3.8,2.2,6.7,2.2c2.8,0,5-0.7,6.5-2.2c1.5-1.5,2.3-3.6,2.3-6.4V18.9H219.4z M226,52.2V18.9h3.9v33.3
                		H226z"></path>
                    <path class="logo-text" d="M188.3,71.4c0,0-2.5-0.3-3.5-0.3c-1.5,0-2.3,0.5-2.3,1.6c0,1.1,0.6,1.4,2.7,2c2.6,0.7,3.5,1.4,3.5,3.5
                		c0,2.7-1.7,3.8-4.1,3.8c-1.6,0-4-0.5-4-0.5l0.2-1.6c0,0,2.4,0.3,3.7,0.3c1.5,0,2.2-0.7,2.2-2c0-1-0.6-1.4-2.4-1.8
                		c-2.6-0.7-3.8-1.5-3.8-3.6c0-2.5,1.6-3.5,4.1-3.5c1.6,0,3.9,0.4,3.9,0.4L188.3,71.4z M193.5,69.6h3.4l2.7,9.5l2.7-9.5h3.5v12.2h-2
                		V71.3h-0.1l-3.1,10.1h-2.1l-3.1-10.1h-0.1v10.6h-2V69.6z M236.5,69.6h8.9v1.8H242v10.5h-2V71.4h-3.5V69.6z M254.1,69.6
                		c2.4,0,3.7,0.9,3.7,3.2c0,1.5-0.5,2.2-1.4,2.7c1.1,0.4,1.7,1.2,1.7,2.8c0,2.5-1.5,3.5-3.9,3.5h-4.8V69.6H254.1z M251.4,71.3v3.5
                		h2.6c1.2,0,1.7-0.6,1.7-1.8c0-1.2-0.6-1.7-1.8-1.7H251.4z M251.4,76.5v3.6h2.7c1.2,0,2-0.4,2-1.9c0-1.4-1-1.8-2-1.8H251.4z
                		M263,69.6h7.7v1.7H265v3.5h4.7v1.7H265v3.6h5.7v1.7H263V69.6z M277.8,69.6h3.9l3,12.2h-2l-0.9-3.6h-4.2l-0.9,3.6h-2L277.8,69.6z
                		M278.1,76.5h3.4l-1.3-5.2h-0.9L278.1,76.5z M291.2,78.2v3.6h-2V69.6h4.6c2.7,0,4.1,1.5,4.1,4.3c0,1.7-0.7,3.3-2,3.9l2,4.1h-2.2
                		l-1.8-3.6H291.2z M293.8,71.3h-2.7v5.2h2.7c1.5,0,2.1-1.3,2.1-2.6C295.9,72.5,295.3,71.3,293.8,71.3z M213.2,69.6h3.9l3,12.2h-2
                		l-0.9-3.6H213l-0.9,3.6h-2L213.2,69.6z M213.4,76.5h3.4l-1.3-5.2h-0.9L213.4,76.5z M226.5,78.2v3.6h-2V69.6h4.6
                		c2.7,0,4.1,1.5,4.1,4.3c0,1.7-0.7,3.3-2,3.9l2,4.1h-2.2l-1.8-3.6H226.5z M229.2,71.3h-2.7v5.2h2.7c1.5,0,2.1-1.3,2.1-2.6
                		C231.3,72.5,230.6,71.3,229.2,71.3z M97,79.5c0,0.8-0.3,1.4-0.9,1.8c-0.6,0.4-1.4,0.7-2.3,0.7c-1.1,0-1.9-0.1-2.5-0.4v-1
                		c0.4,0.2,0.8,0.3,1.2,0.4s0.9,0.1,1.3,0.1c0.7,0,1.2-0.1,1.6-0.4c0.4-0.3,0.5-0.6,0.5-1.1c0-0.3-0.1-0.6-0.2-0.8
                		c-0.1-0.2-0.3-0.4-0.6-0.5c-0.3-0.2-0.7-0.4-1.3-0.6C93,77.4,92.4,77,92,76.6c-0.4-0.4-0.5-0.9-0.5-1.6c0-0.7,0.3-1.2,0.8-1.7
                		c0.5-0.4,1.2-0.6,2.1-0.6c0.9,0,1.7,0.2,2.5,0.5l-0.3,0.9c-0.7-0.3-1.5-0.5-2.2-0.5c-0.6,0-1,0.1-1.3,0.4c-0.3,0.2-0.5,0.6-0.5,1
                		c0,0.3,0.1,0.6,0.2,0.8c0.1,0.2,0.3,0.4,0.6,0.5s0.7,0.3,1.2,0.5c0.9,0.3,1.6,0.7,1.9,1.1C96.9,78.3,97,78.8,97,79.5z M99.8,75.1
                		v4.4c0,0.5,0.1,1,0.4,1.2c0.2,0.3,0.6,0.4,1.2,0.4c0.7,0,1.2-0.2,1.5-0.6c0.3-0.4,0.5-1,0.5-1.9v-3.5h1v6.7h-0.8l-0.1-0.9h-0.1
                		c-0.2,0.3-0.5,0.6-0.9,0.8c-0.4,0.2-0.8,0.3-1.3,0.3c-0.8,0-1.4-0.2-1.8-0.6c-0.4-0.4-0.6-1-0.6-1.9v-4.4H99.8z M109.9,82
                		c-0.4,0-0.8-0.1-1.2-0.2c-0.4-0.2-0.7-0.4-0.9-0.7h-0.1c0,0.4,0.1,0.8,0.1,1.1v2.8h-1v-9.7h0.8l0.1,0.9h0c0.3-0.4,0.6-0.6,0.9-0.8
                		c0.3-0.2,0.7-0.2,1.2-0.2c0.9,0,1.6,0.3,2.1,0.9c0.5,0.6,0.7,1.5,0.7,2.6c0,1.1-0.2,2-0.7,2.6C111.4,81.7,110.7,82,109.9,82z
                		M109.7,75.9c-0.7,0-1.2,0.2-1.5,0.6s-0.5,1-0.5,1.8v0.2c0,0.9,0.2,1.6,0.5,2s0.8,0.6,1.5,0.6c0.6,0,1-0.2,1.4-0.7
                		c0.3-0.5,0.5-1.1,0.5-1.9c0-0.8-0.2-1.5-0.5-1.9S110.3,75.9,109.7,75.9z M117.7,82c-0.4,0-0.8-0.1-1.2-0.2
                		c-0.4-0.2-0.7-0.4-0.9-0.7h-0.1c0,0.4,0.1,0.8,0.1,1.1v2.8h-1v-9.7h0.8l0.1,0.9h0c0.3-0.4,0.6-0.6,0.9-0.8s0.7-0.2,1.2-0.2
                		c0.9,0,1.6,0.3,2.1,0.9s0.7,1.5,0.7,2.6c0,1.1-0.2,2-0.7,2.6C119.3,81.7,118.6,82,117.7,82z M117.6,75.9c-0.7,0-1.2,0.2-1.5,0.6
                		c-0.3,0.4-0.5,1-0.5,1.8v0.2c0,0.9,0.2,1.6,0.5,2c0.3,0.4,0.8,0.6,1.5,0.6c0.6,0,1-0.2,1.4-0.7c0.3-0.5,0.5-1.1,0.5-1.9
                		c0-0.8-0.2-1.5-0.5-1.9C118.7,76.1,118.2,75.9,117.6,75.9z M128.4,78.5c0,1.1-0.3,2-0.8,2.6c-0.6,0.6-1.3,0.9-2.3,0.9
                		c-0.6,0-1.1-0.1-1.6-0.4c-0.5-0.3-0.8-0.7-1.1-1.2c-0.3-0.5-0.4-1.1-0.4-1.9c0-1.1,0.3-2,0.8-2.6s1.3-0.9,2.3-0.9
                		c0.9,0,1.7,0.3,2.2,0.9C128.1,76.6,128.4,77.4,128.4,78.5z M123.2,78.5c0,0.9,0.2,1.5,0.5,2c0.3,0.5,0.8,0.7,1.5,0.7
                		c0.7,0,1.2-0.2,1.5-0.7c0.3-0.4,0.5-1.1,0.5-2c0-0.9-0.2-1.5-0.5-1.9c-0.3-0.4-0.9-0.7-1.5-0.7c-0.7,0-1.2,0.2-1.5,0.7
                		C123.4,77,123.2,77.6,123.2,78.5z M133.4,75c0.3,0,0.6,0,0.8,0.1l-0.1,0.9c-0.3-0.1-0.5-0.1-0.7-0.1c-0.5,0-1,0.2-1.4,0.7
                		c-0.4,0.4-0.6,1-0.6,1.7v3.6h-1v-6.7h0.8l0.1,1.2h0c0.2-0.4,0.6-0.8,0.9-1C132.6,75.1,133,75,133.4,75z M138.4,81.1
                		c0.2,0,0.4,0,0.5,0c0.2,0,0.3-0.1,0.4-0.1v0.8c-0.1,0.1-0.3,0.1-0.5,0.1c-0.2,0-0.4,0.1-0.6,0.1c-1.3,0-2-0.7-2-2.1v-4h-1v-0.5
                		l1-0.4l0.4-1.4h0.6v1.6h2v0.8h-2v4c0,0.4,0.1,0.7,0.3,0.9C137.8,81,138,81.1,138.4,81.1z M143.6,82c-1,0-1.8-0.3-2.4-0.9
                		c-0.6-0.6-0.9-1.4-0.9-2.5c0-1.1,0.3-1.9,0.8-2.6c0.5-0.6,1.3-1,2.2-1c0.8,0,1.5,0.3,2,0.8c0.5,0.6,0.7,1.3,0.7,2.2v0.6h-4.6
                		c0,0.8,0.2,1.4,0.6,1.8c0.4,0.4,0.9,0.6,1.6,0.6c0.7,0,1.4-0.2,2.1-0.5v0.9c-0.4,0.2-0.7,0.3-1,0.3C144.4,81.9,144.1,82,143.6,82z
                		M143.3,75.8c-0.5,0-1,0.2-1.3,0.5c-0.3,0.4-0.5,0.8-0.6,1.5h3.5c0-0.6-0.1-1.1-0.4-1.5C144.3,76,143.9,75.8,143.3,75.8z
                		M152.6,80.9L152.6,80.9c-0.5,0.7-1.2,1-2.2,1c-0.9,0-1.6-0.3-2.1-0.9c-0.5-0.6-0.7-1.5-0.7-2.6s0.2-2,0.7-2.6
                		c0.5-0.6,1.2-0.9,2.1-0.9c0.9,0,1.6,0.3,2.1,1h0.1l0-0.5l0-0.5v-2.7h1v9.6h-0.8L152.6,80.9z M150.6,81.1c0.7,0,1.2-0.2,1.5-0.6
                		c0.3-0.4,0.5-1,0.5-1.8v-0.2c0-1-0.2-1.6-0.5-2c-0.3-0.4-0.8-0.6-1.5-0.6c-0.6,0-1.1,0.2-1.4,0.7c-0.3,0.5-0.5,1.1-0.5,2
                		c0,0.9,0.2,1.5,0.5,1.9C149.5,80.9,150,81.1,150.6,81.1z M162.7,75c0.9,0,1.6,0.3,2.1,0.9c0.5,0.6,0.7,1.5,0.7,2.6
                		c0,1.1-0.2,2-0.7,2.6c-0.5,0.6-1.2,0.9-2.1,0.9c-0.4,0-0.8-0.1-1.2-0.2c-0.4-0.2-0.7-0.4-0.9-0.7h-0.1l-0.2,0.9h-0.7v-9.6h1v2.3
                		c0,0.5,0,1,0,1.4h0C161,75.3,161.7,75,162.7,75z M162.5,75.9c-0.7,0-1.2,0.2-1.5,0.6c-0.3,0.4-0.5,1.1-0.5,2s0.2,1.6,0.5,2
                		s0.8,0.6,1.5,0.6c0.6,0,1.1-0.2,1.4-0.7c0.3-0.5,0.5-1.1,0.5-2c0-0.9-0.2-1.5-0.5-2C163.6,76.1,163.2,75.9,162.5,75.9z M166.4,75.1
                		h1.1l1.5,3.8c0.3,0.9,0.5,1.5,0.6,1.9h0c0.1-0.2,0.2-0.6,0.3-1.1c0.2-0.5,0.7-2.1,1.7-4.7h1.1l-2.9,7.7c-0.3,0.8-0.6,1.3-1,1.6
                		c-0.4,0.3-0.9,0.5-1.4,0.5c-0.3,0-0.6,0-0.9-0.1v-0.8c0.2,0,0.5,0.1,0.8,0.1c0.7,0,1.2-0.4,1.5-1.2l0.4-1L166.4,75.1z"></path>
                </svg>