<?xml version="1.0" encoding="utf-8"?>
<!-- Generator: Adobe Illustrator 24.1.2, SVG Export Plug-In . SVG Version: 6.00 Build 0)  -->
<svg version="1.1" id="Layer_1" xmlns="http://www.w3.org/2000/svg" xmlns:xlink="http://www.w3.org/1999/xlink" x="0px" y="0px"
	 viewBox="0 0 120 60" style="enable-background:new 0 0 120 60;" xml:space="preserve">
<style type="text/css">
	.st0{fill-rule:evenodd;clip-rule:evenodd;fill:url(#SVGID_1_);}
	.st1{fill-rule:evenodd;clip-rule:evenodd;fill:#24292E;}
</style>
<g>
	
		<linearGradient id="SVGID_1_" gradientUnits="userSpaceOnUse" x1="-0.1384" y1="65.3285" x2="39.8555" y2="-1.3276" gradientTransform="matrix(1 0 0 -1 1.333 62)">
		<stop  offset="0" style="stop-color:#2383AE"/>
		<stop  offset="1" style="stop-color:#6DD7B9"/>
	</linearGradient>
	<path class="st0" d="M11.2,26c1.3-5.3,4.7-8,10-8c8,0,9,6,13,7c2.7,0.7,5-0.3,7-3c-1.3,5.3-4.7,8-10,8c-8,0-9-6-13-7
		C15.5,22.3,13.2,23.3,11.2,26L11.2,26z M1.2,38c1.3-5.3,4.7-8,10-8c8,0,9,6,13,7c2.7,0.7,5-0.3,7-3c-1.3,5.3-4.7,8-10,8
		c-8,0-9-6-13-7C5.5,34.3,3.2,35.3,1.2,38z"/>
	<path class="st1" d="M48.5,27.2h-2.6v-1.6h7.1v1.6h-2.6v7.1h-1.8V27.2z M56.3,33.5c-0.2,0.3-0.5,0.5-0.8,0.7
		c-0.3,0.2-0.7,0.3-1.2,0.3c-0.3,0-0.5,0-0.8-0.1c-0.3-0.1-0.5-0.2-0.7-0.3s-0.3-0.3-0.5-0.6c-0.1-0.2-0.2-0.5-0.2-0.9
		c0-0.4,0.1-0.8,0.3-1.1c0.2-0.3,0.5-0.5,0.8-0.6c0.3-0.2,0.7-0.3,1.1-0.3c0.4-0.1,0.8-0.1,1.2-0.1l0.8,0v-0.3
		c0-0.4-0.1-0.7-0.3-0.8s-0.5-0.2-0.8-0.2c-0.7,0-1.1,0.3-1.2,0.8l-1.6-0.1c0.1-0.7,0.4-1.1,0.9-1.4c0.5-0.3,1.1-0.4,1.9-0.4
		c0.5,0,0.9,0.1,1.2,0.2s0.6,0.3,0.8,0.5c0.2,0.2,0.4,0.5,0.5,0.8c0.1,0.3,0.1,0.7,0.1,1.1v4h-1.6V33.5L56.3,33.5z M56.3,31.5
		l-0.8,0c-0.4,0-0.6,0.1-0.9,0.1c-0.2,0.1-0.4,0.1-0.5,0.2C54.1,32,54,32,53.9,32.2s-0.1,0.2-0.1,0.4c0,0.2,0.1,0.4,0.2,0.5
		c0.1,0.1,0.3,0.2,0.6,0.2c0.4,0,0.8-0.1,1.1-0.3c0.2-0.1,0.3-0.3,0.4-0.4c0.1-0.2,0.1-0.4,0.1-0.7L56.3,31.5L56.3,31.5z M59.3,28
		H61v6.3h-1.7V28z M59.3,25.7h1.8v1.5h-1.8V25.7z M62.5,25.7h1.7v8.7h-1.7V25.7z M65,28h1.8l0.9,4.2l1.2-4.1h1.5l1.1,4.2l0.9-4.2
		h1.8l-1.9,6.3h-1.7l-1.1-4.2l-1.1,4.2h-1.6L65,28L65,28z M75,28h1.7v6.3H75V28z M75,25.7h1.8v1.5H75V25.7z M78.1,28h1.7v0.9
		c0.3-0.4,0.5-0.6,0.9-0.8c0.3-0.2,0.7-0.3,1.1-0.3c0.7,0,1.3,0.2,1.6,0.6c0.3,0.4,0.5,1,0.5,1.8v4.2h-1.7v-4c0-0.5-0.1-0.7-0.3-0.9
		c-0.2-0.2-0.4-0.2-0.7-0.2c-0.2,0-0.4,0-0.6,0.1c-0.2,0.1-0.3,0.2-0.4,0.3C80.1,29.7,80,29.8,80,30c-0.1,0.2-0.1,0.3-0.1,0.5v3.8
		h-1.7L78.1,28L78.1,28z M89.7,33.5c-0.4,0.7-1.2,1.1-2,1c-0.9,0-1.6-0.3-2-0.9C85.3,33,85,32.2,85,31.1c0-0.5,0.1-0.9,0.2-1.4
		c0.1-0.4,0.3-0.8,0.5-1.1c0.2-0.3,0.5-0.5,0.9-0.7c0.3-0.2,0.7-0.2,1.2-0.2c0.3,0,0.6,0.1,0.9,0.2c0.3,0.1,0.6,0.3,0.9,0.7v-3h1.7
		v8.7h-1.7L89.7,33.5L89.7,33.5z M89.6,31.1c0-0.4,0-0.7-0.1-1s-0.2-0.4-0.3-0.6c-0.1-0.1-0.3-0.2-0.5-0.3c-0.2,0-0.3-0.1-0.5-0.1
		c-0.2,0-0.4,0-0.5,0.1c-0.2,0.1-0.3,0.2-0.4,0.3S87,30,86.9,30.2c-0.1,0.2-0.1,0.5-0.1,0.9c0,0.4,0,0.7,0.1,1
		c0.1,0.3,0.2,0.5,0.3,0.6c0.1,0.2,0.3,0.3,0.4,0.3c0.2,0.1,0.3,0.1,0.5,0.1c0.4,0,0.7-0.1,1-0.4c0.2-0.2,0.3-0.4,0.4-0.6
		c0.1-0.2,0.1-0.5,0.1-0.9L89.6,31.1L89.6,31.1z M103,31.3c0,0.5-0.1,0.9-0.3,1.3c-0.2,0.4-0.4,0.7-0.7,1c-0.3,0.3-0.7,0.5-1.1,0.7
		c-0.4,0.2-1,0.2-1.5,0.2c-0.7,0-1.2-0.1-1.7-0.3c-0.5-0.2-0.9-0.5-1.3-0.9c-0.3-0.4-0.6-0.9-0.8-1.4c-0.2-0.6-0.3-1.2-0.3-1.9
		c0-0.7,0.1-1.3,0.3-1.9c0.2-0.6,0.5-1,0.8-1.4c0.3-0.4,0.8-0.7,1.3-0.9c0.5-0.2,1.1-0.3,1.7-0.3c0.6,0,1,0.1,1.4,0.2
		c0.4,0.1,0.8,0.3,1,0.6c0.3,0.3,0.5,0.6,0.7,0.9c0.2,0.4,0.3,0.8,0.4,1.2l-1.8,0.2c-0.1-0.5-0.3-0.9-0.5-1.2S99.8,27,99.3,27
		c-0.7,0-1.2,0.3-1.6,0.8c-0.4,0.5-0.5,1.3-0.5,2.2c0,1,0.2,1.7,0.6,2.2c0.4,0.5,0.9,0.8,1.6,0.8c0.6,0,1-0.1,1.2-0.4
		c0.3-0.3,0.4-0.7,0.5-1.2L103,31.3z M105.6,31.5c0,0.5,0.2,0.9,0.5,1.2c0.3,0.2,0.8,0.4,1.3,0.4c0.3,0,0.5,0,0.7-0.1
		c0.2-0.1,0.4-0.1,0.5-0.2c0.1-0.1,0.2-0.2,0.3-0.4c0.1-0.1,0.1-0.3,0.1-0.4c0-0.2-0.1-0.4-0.3-0.6c-0.2-0.2-0.5-0.3-0.9-0.4
		l-1.1-0.2c-0.5-0.1-0.8-0.2-1.2-0.3c-0.3-0.1-0.6-0.3-0.9-0.5s-0.4-0.5-0.5-0.8c-0.1-0.3-0.2-0.7-0.2-1.1c0-0.4,0.1-0.8,0.2-1.1
		c0.2-0.3,0.4-0.6,0.7-0.8c0.3-0.2,0.7-0.4,1.1-0.5c0.4-0.1,0.9-0.2,1.4-0.2c0.6,0,1.2,0.1,1.6,0.2c0.4,0.1,0.8,0.3,1,0.6
		c0.3,0.2,0.5,0.5,0.6,0.8s0.2,0.6,0.3,1l-1.7,0.2c-0.1-0.5-0.3-0.8-0.5-1c-0.3-0.2-0.6-0.3-1.2-0.3c-0.3,0-0.6,0-0.8,0.1
		c-0.2,0.1-0.4,0.1-0.5,0.2c-0.1,0.1-0.2,0.2-0.3,0.3c0,0.1-0.1,0.2-0.1,0.4c0,0.3,0.1,0.6,0.3,0.7c0.2,0.2,0.5,0.3,0.9,0.4l1.2,0.2
		c0.9,0.2,1.6,0.5,2.1,0.9c0.4,0.4,0.7,1,0.7,1.8c0,0.4-0.1,0.7-0.2,1.1c-0.1,0.3-0.4,0.6-0.6,0.8c-0.3,0.3-0.7,0.4-1.1,0.6
		c-0.4,0.1-0.9,0.2-1.5,0.2c-1.2,0-2.1-0.3-2.7-0.8s-1-1.3-1-2.3L105.6,31.5L105.6,31.5z M113.5,31.5c0,0.5,0.2,0.9,0.5,1.2
		c0.3,0.2,0.8,0.4,1.3,0.4c0.3,0,0.5,0,0.7-0.1c0.2-0.1,0.4-0.1,0.5-0.2c0.1-0.1,0.2-0.2,0.3-0.4c0.1-0.1,0.1-0.3,0.1-0.4
		c0-0.2-0.1-0.5-0.3-0.6c-0.2-0.2-0.5-0.3-0.9-0.4l-1.1-0.2c-0.5-0.1-0.8-0.2-1.2-0.3c-0.3-0.1-0.6-0.3-0.9-0.5s-0.4-0.5-0.5-0.8
		c-0.1-0.3-0.2-0.7-0.2-1.1c0-0.4,0.1-0.8,0.2-1.1c0.2-0.3,0.4-0.6,0.7-0.8c0.3-0.2,0.7-0.4,1.1-0.5c0.4-0.1,0.9-0.2,1.4-0.2
		c0.6,0,1.2,0.1,1.6,0.2c0.4,0.1,0.8,0.3,1,0.6c0.3,0.2,0.5,0.5,0.6,0.8s0.2,0.6,0.3,1l-1.7,0.2c-0.1-0.5-0.3-0.8-0.5-1
		c-0.3-0.2-0.6-0.3-1.2-0.3c-0.3,0-0.6,0-0.8,0.1s-0.4,0.1-0.5,0.2c-0.1,0.1-0.2,0.2-0.3,0.3c0,0.1-0.1,0.2-0.1,0.4
		c0,0.3,0.1,0.6,0.3,0.7c0.2,0.2,0.5,0.3,0.9,0.4l1.2,0.2c0.9,0.2,1.6,0.5,2.1,0.9c0.4,0.4,0.7,1,0.7,1.8c0,0.4-0.1,0.7-0.2,1.1
		c-0.1,0.3-0.4,0.6-0.6,0.8c-0.3,0.2-0.6,0.4-1.1,0.6c-0.4,0.1-0.9,0.2-1.5,0.2c-1.2,0-2.1-0.3-2.7-0.8c-0.6-0.5-1-1.3-1-2.3
		L113.5,31.5z"/>
</g>
</svg>
