<?xml version="1.0" encoding="utf-8"?>
<!-- Generator: Adobe Illustrator 24.1.2, SVG Export Plug-In . SVG Version: 6.00 Build 0)  -->
<svg version="1.1"
	 id="svg3476" inkscape:version="0.92.4 (5da689c313, 2019-01-14)" sodipodi:docname="w3_css-ar21.svg" xmlns:cc="http://creativecommons.org/ns#" xmlns:dc="http://purl.org/dc/elements/1.1/" xmlns:inkscape="http://www.inkscape.org/namespaces/inkscape" xmlns:rdf="http://www.w3.org/1999/02/22-rdf-syntax-ns#" xmlns:sodipodi="http://sodipodi.sourceforge.net/DTD/sodipodi-0.dtd" xmlns:svg="http://www.w3.org/2000/svg"
	 xmlns="http://www.w3.org/2000/svg" xmlns:xlink="http://www.w3.org/1999/xlink" x="0px" y="0px" viewBox="0 0 120 60"
	 style="enable-background:new 0 0 120 60;" xml:space="preserve">
<style type="text/css">
	.st0{fill:none;stroke:#264DE4;stroke-miterlimit:10;}
	.st1{display:none;fill:#2965F1;}
	.st2{fill:#264DE4;}
	.st3{opacity:0.8;fill:#264DE4;}
</style>
<sodipodi:namedview  bordercolor="#666666" borderopacity="1.0" fit-margin-bottom="0" fit-margin-left="0" fit-margin-right="0" fit-margin-top="0" id="base" inkscape:current-layer="layer1" inkscape:cx="37.811232" inkscape:cy="51.471985" inkscape:document-units="px" inkscape:pageopacity="0.0" inkscape:pageshadow="2" inkscape:window-height="1016" inkscape:window-maximized="1" inkscape:window-width="1850" inkscape:window-x="70" inkscape:window-y="27" inkscape:zoom="6.0991803" pagecolor="#ffffff" showgrid="false" units="px">
	</sodipodi:namedview>
<g id="layer1" transform="translate(-193.633,-732.11218)" inkscape:groupmode="layer" inkscape:label="Calque 1">
	<g id="g29" transform="translate(-10.821126,3.1151727)">
		<path id="path2999" inkscape:connector-curvature="0" d="M257.2,747.2h17.3v7.2h-10.1v7.2h10.1v7.2h-17.3V747.2z"/>
		<path id="path3001" inkscape:connector-curvature="0" d="M277.9,747.2h17.3v6.3h-10.1v1.3h10.1v14.5h-17.3v-6.6H288v-1.3h-10.1
			V747.2z"/>
		<path id="path3003" inkscape:connector-curvature="0" d="M298.7,747.2h17.3v6.3h-10.1v1.3h10.1v14.5h-17.3v-6.6h10.1v-1.3h-10.1
			V747.2z"/>
	</g>
	<g id="g37" transform="matrix(0.60400616,0,0,0.60400616,83.235735,307.26789)">
		<polygon id="polygon2989" class="st0" points="251.6,781.1 225.5,788.4 199.4,781.1 193.6,716 257.4,716 		"/>
		<polygon id="polygon2991" class="st1" points="225.5,782.8 246.6,777 251.6,721.4 225.5,721.4 		"/>
		<polygon id="polygon2993" class="st2" points="225.5,745.5 206.9,745.5 207.7,753.5 225.5,753.5 		"/>
		<polygon id="polygon2995" class="st2" points="225.5,729.4 205.5,729.4 206.2,737.3 225.5,737.3 225.5,729.4 		"/>
		<polygon id="polygon2997" class="st2" points="225.5,766.3 216.6,763.8 216,757.5 211.7,757.5 208,757.5 209.1,770 225.5,774.6 
			225.5,774.5 225.5,766.2 		"/>
		<polygon id="polygon3005" class="st3" points="236.7,737.3 236,745.5 225.5,745.5 225.5,753.5 235.3,753.5 234.4,763.8 
			225.5,766.2 225.5,774.6 241.9,770 242,768.7 243.8,747.7 244,745.5 245.5,729.4 225.5,729.4 225.5,737.3 		"/>
	</g>
</g>
</svg>
