<?xml version="1.0" encoding="utf-8"?>
<!-- Generator: Adobe Illustrator 24.1.2, SVG Export Plug-In . SVG Version: 6.00 Build 0)  -->
<svg version="1.1" id="Layer_1" xmlns="http://www.w3.org/2000/svg" xmlns:xlink="http://www.w3.org/1999/xlink" x="0px" y="0px"
	 viewBox="0 0 120 60" style="enable-background:new 0 0 120 60;" xml:space="preserve">
<style type="text/css">
	.st0{display:none;fill:#F16529;}
	.st1{fill:none;stroke:#E44D26;stroke-miterlimit:10;}
	.st2{fill:#E44D26;}
	.st3{opacity:0.8;fill:#E44D26;}
</style>
<path class="st0" d="M108.4,42.3l2.5-27.6H97.9v30.5L108.4,42.3z"/>
<g>
	<path d="M6.3,21.5H12v5.6h5.2v-5.6h5.7v17h-5.7v-5.7H12v5.7H6.3C6.3,38.5,6.3,21.5,6.3,21.5z M30.4,27.1h-5v-5.7h15.7v5.7h-5v11.4
		h-5.7L30.4,27.1L30.4,27.1z M43.6,21.5h5.9l3.7,6l3.7-6h5.9v17.1h-5.7v-8.5l-3.9,6.1h-0.1l-3.9-6.1v8.5h-5.6L43.6,21.5z M65.6,21.5
		h5.7v11.4h8v5.6H65.6L65.6,21.5z"/>
	<path class="st1" d="M80.3,10h35.3l-3.2,36l-14.4,4l-14.4-4L80.3,10z"/>
	<path class="st2" d="M92,26.3l-0.4-4.5h6.3v-4.4H86.8L88,30.7h9.9v-4.4L92,26.3z M88.2,32.9l0.6,6.9l9,2.5l0,0v-4.6l0,0L93,36.4
		l-0.3-3.5h-2.4L88.2,32.9z"/>
	<path class="st3" d="M108,27.5l0.1-1.2H97.9v4.4h5.4l-0.5,5.7l-4.9,1.3v4.6l9.1-2.5l0.1-0.7L108,27.5z M97.9,21.8h10.7l0.4-4.4
		H97.9L97.9,21.8L97.9,21.8z"/>
</g>
</svg>
