<?xml version="1.0" encoding="utf-8"?>
<!-- Generator: Adobe Illustrator 27.3.1, SVG Export Plug-In . SVG Version: 6.00 Build 0)  -->
<svg version="1.1" id="Layer_1" xmlns:sketch="http://www.bohemiancoding.com/sketch/ns"
	 xmlns="http://www.w3.org/2000/svg" xmlns:xlink="http://www.w3.org/1999/xlink" x="0px" y="0px" viewBox="0 0 484 140"
	 style="enable-background:new 0 0 484 140;" xml:space="preserve">
<style type="text/css">
	.st0{fill-rule:evenodd;clip-rule:evenodd;fill:#3498DB;}
</style>
<g id="Page-1" sketch:type="MSPage">
	<g id="xamarin-logo" sketch:type="MSArtboardGroup">
		<path id="Logo" sketch:type="MSShapeGroup" class="st0" d="M195.2,100l-12-23.1L170.9,100h-13.2l18.8-29.8l-16.9-29.6H173l11,22.5
			l11.9-22.5h12.3L190.7,70l17.6,30H195.2z M238.1,100v-6.5H238c-3.3,5.1-7.9,7.6-13.9,7.6c-4.6,0-8.2-1.3-10.9-3.8
			c-2.7-2.5-4-5.9-4-10.2c0-9.1,5.1-14.3,15.3-15.5l13.7-1.9c0-6.4-3-9.6-8.9-9.6c-5.6,0-10.8,1.7-15.6,5.2v-9.4
			c1.8-1.1,4.3-2,7.6-2.9c3.3-0.9,6.3-1.3,9.1-1.3c12.1,0,18.1,6.1,18.1,18.3V100H238.1L238.1,100z M228.1,78.5
			c-3.1,0.4-5.4,1.2-6.6,2.3c-1.3,1.1-1.9,2.9-1.9,5.3c0,2,0.7,3.6,2.2,4.8c1.4,1.2,3.3,1.8,5.6,1.8c3.1,0,5.7-1.1,7.8-3.3
			c2-2.2,3.1-4.9,3.1-8.1v-4.2L228.1,78.5L228.1,78.5z M316.1,100V73.5c0-4.4-0.7-7.6-2.1-9.7c-1.3-2.1-3.8-3.2-7.2-3.2
			c-2.8,0-5.1,1.3-7,3.9c-1.9,2.5-2.8,5.6-2.8,9.2V100h-10.6V72.6c0-8-3.1-12-9.2-12c-2.9,0-5.2,1.2-7.1,3.6
			c-1.8,2.4-2.7,5.6-2.7,9.4V100h-10.6V53h10.6v7.2h0.2c3.4-5.6,8.3-8.4,14.8-8.4c3.1,0,5.9,0.8,8.2,2.5c2.4,1.6,4.1,3.9,5.1,6.7
			c3.6-6.1,8.8-9.2,15.8-9.2c10.2,0,15.3,6.4,15.3,19.1v29H316.1L316.1,100z M361.9,100v-6.5h-0.2c-3.3,5.1-7.9,7.6-13.9,7.6
			c-4.6,0-8.2-1.3-10.9-3.8c-2.7-2.5-4-5.9-4-10.2c0-9.1,5.1-14.3,15.3-15.5l13.7-1.9c0-6.4-3-9.6-8.9-9.6c-5.6,0-10.8,1.7-15.6,5.2
			v-9.4c1.8-1.1,4.3-2,7.6-2.9c3.3-0.9,6.3-1.3,9.1-1.3c12.1,0,18.1,6.1,18.1,18.3V100H361.9L361.9,100z M351.9,78.5
			c-3.1,0.4-5.4,1.2-6.6,2.3c-1.3,1.1-1.9,2.9-1.9,5.3c0,2,0.7,3.6,2.2,4.8c1.4,1.2,3.3,1.8,5.6,1.8c3.1,0,5.7-1.1,7.8-3.3
			c2-2.2,3.1-4.9,3.1-8.1v-4.2L351.9,78.5L351.9,78.5z M407.7,63.4c-1.7-1.1-3.8-1.6-6.1-1.6c-3.1,0-5.5,1.3-7.5,3.9
			c-1.9,2.6-2.8,6.1-2.8,10.3v24h-10.6V53h10.6v9.1h0.2c2.3-6.6,6.3-9.9,12-9.9c1.9,0,3.3,0.2,4.3,0.6L407.7,63.4L407.7,63.4z
			 M418.3,42.5c-1.8,0-3.3-0.6-4.6-1.7c-1.3-1.2-1.9-2.6-1.9-4.4c0-1.8,0.6-3.3,1.9-4.4c1.3-1.2,2.8-1.8,4.6-1.8
			c1.8,0,3.4,0.6,4.6,1.8c1.3,1.2,1.9,2.7,1.9,4.4c0,1.7-0.6,3.2-1.9,4.4C421.6,42,420.1,42.5,418.3,42.5z M412.9,100V53h10.6v47
			H412.9z M463.4,100V73.6c0-8.7-3.1-13.1-9.4-13.1c-3.1,0-5.8,1.2-7.9,3.6c-2.1,2.4-3.2,5.4-3.2,9.1V100h-10.6V53H443v7.5h0.2
			c3.4-5.8,8.5-8.7,15.2-8.7c10.4,0,15.7,6.4,15.7,19.3V100H463.4L463.4,100z M43.2,16.9c-3.2,0-6.4,1.8-8,4.6L10,65.4
			c-1.6,2.8-1.6,6.5,0,9.2l25.2,43.8c1.6,2.8,4.8,4.6,8,4.6h50.3c3.2,0,6.4-1.8,8-4.6l25.2-43.8c1.6-2.8,1.6-6.5,0-9.2l-25.2-43.8
			c-1.6-2.8-4.8-4.6-8-4.6H43.2z M43.6,42.6c0.1,0,0.1,0,0.2,0h8.7c0.4,0,0.8,0.2,0.9,0.6l14.7,26.3c0.1,0.1,0.1,0.3,0.1,0.4
			c0-0.1,0.1-0.3,0.1-0.4l14.7-26.3c0.2-0.3,0.6-0.6,1-0.6h8.7c0.8,0,1.3,1,1,1.7L79.4,70l14.4,25.7c0.4,0.7-0.2,1.7-1,1.7h-8.7
			c-0.4,0-0.8-0.2-1-0.6L68.5,70.5c-0.1-0.1-0.1-0.3-0.1-0.4c0,0.1-0.1,0.3-0.1,0.4L53.5,96.8c-0.2,0.3-0.6,0.6-0.9,0.6h-8.7
			c-0.8,0-1.4-1-1-1.7L57.2,70L42.9,44.2C42.5,43.6,42.9,42.7,43.6,42.6L43.6,42.6z"/>
	</g>
</g>
</svg>
