<?xml version="1.0" encoding="utf-8"?>
<!-- Generator: Adobe Illustrator 24.1.2, SVG Export Plug-In . SVG Version: 6.00 Build 0)  -->
<svg version="1.1" id="Layer_1" xmlns="http://www.w3.org/2000/svg" xmlns:xlink="http://www.w3.org/1999/xlink" x="0px" y="0px"
	 viewBox="0 0 587.9 167.4" style="enable-background:new 0 0 587.9 167.4;" xml:space="preserve">
<style type="text/css">
	.st0{enable-background:new    ;}
	.st1{fill:#1B7374;}
	.st2{clip-path:url(#SVGID_2_);enable-background:new    ;}
	.st3{fill:#1D7677;}
	.st4{fill:#3CB6B7;}
	.st5{clip-path:url(#SVGID_4_);enable-background:new    ;}
	.st6{fill:#808080;}
	.st7{clip-path:url(#SVGID_6_);enable-background:new    ;}
	.st8{fill:#858585;}
	.st9{clip-path:url(#SVGID_8_);enable-background:new    ;}
	.st10{clip-path:url(#SVGID_10_);enable-background:new    ;}
	.st11{fill:#F2F2F2;}
	.st12{clip-path:url(#SVGID_12_);enable-background:new    ;}
	.st13{clip-path:url(#SVGID_14_);enable-background:new    ;}
	.st14{clip-path:url(#SVGID_16_);enable-background:new    ;}
	.st15{clip-path:url(#SVGID_18_);enable-background:new    ;}
	.st16{clip-path:url(#SVGID_20_);enable-background:new    ;}
	.st17{clip-path:url(#SVGID_22_);enable-background:new    ;}
	.st18{clip-path:url(#SVGID_24_);enable-background:new    ;}
	.st19{clip-path:url(#SVGID_26_);enable-background:new    ;}
	.st20{clip-path:url(#SVGID_28_);enable-background:new    ;}
	.st21{clip-path:url(#SVGID_30_);enable-background:new    ;}
	.st22{clip-path:url(#SVGID_32_);enable-background:new    ;}
	.st23{clip-path:url(#SVGID_34_);enable-background:new    ;}
</style>
<g>
	<g>
		<g class="st0">
			<g>
				<polygon class="st1" points="553.1,69.2 540.3,77.8 540.3,77.4 553.1,68.7 				"/>
			</g>
			<g>
				<polygon class="st1" points="553.1,68.7 540.3,77.4 516.3,77.4 529.1,68.7 				"/>
			</g>
			<g>
				<polygon class="st1" points="529.1,68.7 516.3,77.4 517.6,59.8 530.3,51.1 				"/>
			</g>
			<g>
				<polygon class="st1" points="523.3,108.7 510.6,117.4 540.3,77.8 553.1,69.2 				"/>
			</g>
			<g>
				<polygon class="st1" points="522.4,123.6 509.7,132.2 510.6,117.4 523.3,108.7 				"/>
			</g>
			<g class="st0">
				<defs>
					<path id="SVGID_1_" class="st0" d="M575.8,127.7l-12.7,8.7c-11.5-2.8-29.3-4.1-53.4-4.1l12.7-8.7
						C546.6,123.6,564.4,124.9,575.8,127.7z"/>
				</defs>
				<clipPath id="SVGID_2_">
					<use xlink:href="#SVGID_1_"  style="overflow:visible;"/>
				</clipPath>
				<g class="st2">
					<path class="st3" d="M575.8,127.7l-12.7,8.7c-11.5-2.8-29.3-4.1-53.4-4.1l12.7-8.7C546.6,123.6,564.4,124.9,575.8,127.7"/>
				</g>
			</g>
			<g>
				<path class="st4" d="M583.4,51.1l-0.9,14.8L552,105.5l0,0.3c10.8,0.5,20.2,2,28.1,4.4l-4.3,17.5c-11.5-2.8-29.3-4.1-53.4-4.1
					l0.9-14.8l29.7-39.6l0-0.4h-24l1.2-17.6H583.4z"/>
			</g>
		</g>
		<g class="st0">
			<g>
				<polygon class="st1" points="488.1,69.2 475.4,77.8 475.3,77.4 488.1,68.7 				"/>
			</g>
			<g>
				<polygon class="st1" points="488.1,68.7 475.3,77.4 451.3,77.4 464.1,68.7 				"/>
			</g>
			<g>
				<polygon class="st1" points="464.1,68.7 451.3,77.4 452.6,59.8 465.3,51.1 				"/>
			</g>
			<g>
				<polygon class="st1" points="458.4,108.7 445.6,117.4 475.4,77.8 488.1,69.2 				"/>
			</g>
			<g>
				<polygon class="st1" points="457.4,123.6 444.7,132.2 445.6,117.4 458.4,108.7 				"/>
			</g>
			<g class="st0">
				<defs>
					<path id="SVGID_3_" class="st0" d="M510.8,127.7l-12.7,8.7c-11.5-2.8-29.3-4.1-53.4-4.1l12.7-8.7
						C481.6,123.6,499.4,124.9,510.8,127.7z"/>
				</defs>
				<clipPath id="SVGID_4_">
					<use xlink:href="#SVGID_3_"  style="overflow:visible;"/>
				</clipPath>
				<g class="st5">
					<path class="st3" d="M510.8,127.7l-12.7,8.7c-11.5-2.8-29.3-4.1-53.4-4.1l12.7-8.7C481.6,123.6,499.4,124.9,510.8,127.7"/>
				</g>
			</g>
			<g>
				<path class="st4" d="M518.4,51.1l-0.9,14.8L487,105.5l0,0.3c10.8,0.5,20.2,2,28.1,4.4l-4.3,17.5c-11.5-2.8-29.3-4.1-53.4-4.1
					l0.9-14.8l29.7-39.6l0-0.4h-24l1.2-17.6H518.4z"/>
			</g>
		</g>
		<g class="st0">
			<g>
				<polygon class="st6" points="429.6,58.8 416.9,67.5 417.2,62.7 430,54 				"/>
			</g>
			<g>
				<polygon class="st6" points="428.7,78.7 416,87.4 416.2,85.4 428.9,76.7 				"/>
			</g>
			<g class="st0">
				<defs>
					<path id="SVGID_5_" class="st0" d="M398.9,82.2l12.7-8.7c1.7-1.2,3.6-1.7,5.7-1.7c4.5,0,8.3,1.7,11.5,5l-12.7,8.7
						c-3.2-3.3-7.1-5-11.5-5C402.5,80.5,400.6,81,398.9,82.2z"/>
				</defs>
				<clipPath id="SVGID_6_">
					<use xlink:href="#SVGID_5_"  style="overflow:visible;"/>
				</clipPath>
				<g class="st7">
					<path class="st8" d="M428.9,76.7l-12.7,8.7c-3.2-3.3-7.1-5-11.5-5c-2.1,0-4.1,0.6-5.7,1.7l12.7-8.7c1.7-1.2,3.6-1.7,5.7-1.7
						C421.8,71.8,425.7,73.4,428.9,76.7"/>
				</g>
			</g>
			<g>
				<polygon class="st6" points="425.6,113.3 412.8,122 412.4,121.9 425.1,113.2 				"/>
			</g>
			<g class="st0">
				<defs>
					<path id="SVGID_7_" class="st0" d="M417.6,104.1l-12.7,8.7c1.8-1.2,3.5-3.1,5.1-5.5c3.3-4.9,5.3-11.5,6-19.9l12.7-8.7
						c-0.7,8.3-2.7,15-6,19.9C421.1,101,419.4,102.9,417.6,104.1z"/>
				</defs>
				<clipPath id="SVGID_8_">
					<use xlink:href="#SVGID_7_"  style="overflow:visible;"/>
				</clipPath>
				<g class="st9">
					<path class="st8" d="M417.6,104.1l-12.7,8.7c1.8-1.2,3.5-3.1,5.1-5.5c3.3-4.9,5.3-11.5,6-19.9l12.7-8.7c-0.7,8.3-2.7,15-6,19.9
						C421.1,101,419.4,102.9,417.6,104.1"/>
				</g>
			</g>
			<g>
				<polygon class="st6" points="424.8,123.6 412,132.2 412.8,122 425.6,113.3 				"/>
			</g>
			<g>
				<polygon class="st6" points="445.8,123.6 433.1,132.2 412,132.2 424.8,123.6 				"/>
			</g>
			<g class="st0">
				<defs>
					<path id="SVGID_9_" class="st0" d="M417.5,121.4l-12.7,8.7c-3.4,2.3-7.2,3.5-11.4,3.5c-7.1,0-12.7-2.7-16.8-8
						c-4.1-5.3-6.3-12.1-6.7-20.5c-0.6-12.3,2.1-22.7,7.9-31.1c2.4-3.5,5.2-6.3,8.2-8.3l12.7-8.7c-3,2-5.7,4.8-8.2,8.3
						c-5.9,8.4-8.5,18.8-7.9,31.1c0.4,8.3,2.6,15.2,6.7,20.5c4.1,5.3,9.7,8,16.8,8C410.3,124.8,414.1,123.7,417.5,121.4z"/>
				</defs>
				<clipPath id="SVGID_10_">
					<use xlink:href="#SVGID_9_"  style="overflow:visible;"/>
				</clipPath>
				<g class="st10">
					<path class="st8" d="M417.5,121.4l-12.7,8.7c-3.4,2.3-7.2,3.5-11.4,3.5c-7.1,0-12.7-2.7-16.8-8c-4.1-5.3-6.3-12.1-6.7-20.5
						c-0.6-12.3,2.1-22.7,7.9-31.1c2.4-3.5,5.2-6.3,8.2-8.3l12.7-8.7c-3,2-5.7,4.8-8.2,8.3c-5.9,8.4-8.5,18.8-7.9,31.1
						c0.4,8.3,2.6,15.2,6.7,20.5c4.1,5.3,9.7,8,16.8,8C410.3,124.8,414.1,123.7,417.5,121.4"/>
				</g>
			</g>
			<g>
				<path class="st11" d="M430,54H451l-5.2,69.6h-21.1l0.8-10.2l-0.4-0.1c-4.9,7.8-11.3,11.7-19,11.7c-7.1,0-12.7-2.7-16.8-8
					c-4.1-5.3-6.3-12.1-6.7-20.5c-0.6-12.3,2.1-22.7,7.9-31.1c5.9-8.4,13.3-12.6,22.3-12.6c6.9,0,12.3,2,16.3,6.1h0.4L430,54z
					 M428.7,78.7l0.2-2c-3.2-3.3-7.1-5-11.5-5c-4.4,0-7.8,2.4-10.3,7.3c-2.5,4.8-3.7,10.1-3.4,15.8c0.2,3.3,1,6,2.5,8
					c1.5,2,3.5,3.1,5.8,3.1c3.9,0,7.5-2.4,10.8-7.3C426,93.7,428,87.1,428.7,78.7"/>
			</g>
		</g>
		<g class="st0">
			<g class="st0">
				<defs>
					<path id="SVGID_11_" class="st0" d="M344.1,104.5l-12.7,8.7c1.6-1.1,3.1-2.8,4.7-5.2c2.7-4.3,4.5-11.3,5.2-21
						c0.7-7.7,0.3-15.8-1.1-24.3l12.7-8.7c1.4,8.5,1.8,16.6,1.1,24.3c-0.8,9.7-2.5,16.7-5.2,21C347.2,101.7,345.7,103.5,344.1,104.5
						z"/>
				</defs>
				<clipPath id="SVGID_12_">
					<use xlink:href="#SVGID_11_"  style="overflow:visible;"/>
				</clipPath>
				<g class="st12">
					<path class="st8" d="M344.1,104.5l-12.7,8.7c1.6-1.1,3.1-2.8,4.7-5.2c2.7-4.3,4.5-11.3,5.2-21c0.7-7.7,0.3-15.8-1.1-24.3
						l12.7-8.7c1.4,8.5,1.8,16.6,1.1,24.3c-0.8,9.7-2.5,16.7-5.2,21C347.2,101.7,345.7,103.5,344.1,104.5"/>
				</g>
			</g>
			<g>
				<polygon class="st6" points="316.3,83.6 303.6,92.3 305.8,62.7 318.6,54 				"/>
			</g>
			<g>
				<polygon class="st6" points="318.6,112.2 305.8,120.9 305.6,120.9 318.3,112.2 				"/>
			</g>
			<g class="st0">
				<defs>
					<path id="SVGID_13_" class="st0" d="M357.9,118.9l-12.7,8.7c-5.8,3.9-12.5,5.9-20,5.9c-10.2,0-16.7-4.2-19.3-12.7l12.7-8.7
						c2.6,8.4,9,12.7,19.3,12.7C345.4,124.8,352.1,122.9,357.9,118.9z"/>
				</defs>
				<clipPath id="SVGID_14_">
					<use xlink:href="#SVGID_13_"  style="overflow:visible;"/>
				</clipPath>
				<g class="st13">
					<path class="st8" d="M357.9,118.9l-12.7,8.7c-5.8,3.9-12.5,5.9-20,5.9c-10.2,0-16.7-4.2-19.3-12.7l12.7-8.7
						c2.6,8.4,9,12.7,19.3,12.7C345.4,124.8,352.1,122.9,357.9,118.9"/>
				</g>
			</g>
			<g class="st0">
				<defs>
					<path id="SVGID_15_" class="st0" d="M307.6,104.5l-12.7,8.7c1.3-0.9,2.6-2.3,4-4.2c2.6-3.6,4.2-9.2,4.7-16.8l12.7-8.7
						c-0.6,7.6-2.2,13.2-4.7,16.8C310.2,102.2,308.9,103.6,307.6,104.5z"/>
				</defs>
				<clipPath id="SVGID_16_">
					<use xlink:href="#SVGID_15_"  style="overflow:visible;"/>
				</clipPath>
				<g class="st14">
					<path class="st8" d="M307.6,104.5l-12.7,8.7c1.3-0.9,2.6-2.3,4-4.2c2.6-3.6,4.2-9.2,4.7-16.8l12.7-8.7
						c-0.6,7.6-2.2,13.2-4.7,16.8C310.2,102.2,308.9,103.6,307.6,104.5"/>
				</g>
			</g>
			<g>
				<polygon class="st6" points="277.8,96.1 265,104.8 269,62.7 281.7,54 				"/>
			</g>
			<g class="st0">
				<defs>
					<path id="SVGID_17_" class="st0" d="M310.9,120.5l-12.7,8.7c-0.5,0.4-1.1,0.7-1.7,1c-3.9,2.2-7.9,3.3-12,3.3
						c-7.1,0-12.3-2.6-15.6-7.8c-3.3-5.2-4.6-12.2-3.9-20.9l12.7-8.7c-0.7,8.7,0.6,15.7,3.9,20.9c3.3,5.2,8.5,7.8,15.6,7.8
						c4.1,0,8.1-1.1,12-3.3C309.8,121.2,310.4,120.8,310.9,120.5z"/>
				</defs>
				<clipPath id="SVGID_18_">
					<use xlink:href="#SVGID_17_"  style="overflow:visible;"/>
				</clipPath>
				<g class="st15">
					<path class="st8" d="M310.9,120.5l-12.7,8.7c-0.5,0.4-1.1,0.7-1.7,1c-3.9,2.2-7.9,3.3-12,3.3c-7.1,0-12.3-2.6-15.6-7.8
						c-3.3-5.2-4.6-12.2-3.9-20.9l12.7-8.7c-0.7,8.7,0.6,15.7,3.9,20.9c3.3,5.2,8.5,7.8,15.6,7.8c4.1,0,8.1-1.1,12-3.3
						C309.8,121.2,310.4,120.8,310.9,120.5"/>
				</g>
			</g>
			<g>
				<path class="st11" d="M374,54c2,9.2,2.4,18.7,1.3,28.6c-1.4,14.7-5.5,25.4-12.4,32.2c-6.9,6.7-15.2,10.1-25.1,10.1
					c-10.2,0-16.7-4.2-19.3-12.7h-0.3c-2.1,4-5.2,7.1-9.1,9.3c-3.9,2.2-7.9,3.3-12,3.3c-7.1,0-12.3-2.6-15.6-7.8
					c-3.3-5.2-4.6-12.2-3.9-20.9l3.9-42.1h20.7l-3.3,37.1c-0.9,9.8,0.8,14.7,4.9,14.7c2.5,0,5.1-1.8,7.6-5.4
					c2.6-3.6,4.2-9.2,4.7-16.8l2.3-29.6h20.2L336,92c-0.4,5-0.3,8.6,0.5,10.7c0.7,2.1,2.1,3.1,4,3.1c2.8,0,5.6-2.2,8.3-6.5
					c2.7-4.3,4.5-11.3,5.2-21c0.7-7.7,0.3-15.8-1.1-24.3H374z"/>
			</g>
		</g>
		<g class="st0">
			<g class="st0">
				<defs>
					<path id="SVGID_19_" class="st0" d="M220.8,80.1l12.7-8.7c1.8-1.2,3.6-1.8,5.5-1.8c2.2,0,3.7,1.2,4.5,3.6
						c0.7,2.4,0.9,6.1,0.4,11.1L231.1,93c0.4-5,0.3-8.7-0.4-11.1c-0.7-2.4-2.2-3.6-4.5-3.6C224.4,78.3,222.6,78.9,220.8,80.1z"/>
				</defs>
				<clipPath id="SVGID_20_">
					<use xlink:href="#SVGID_19_"  style="overflow:visible;"/>
				</clipPath>
				<g class="st16">
					<path class="st3" d="M243.9,84.3L231.1,93c0.4-5,0.3-8.7-0.4-11.1c-0.7-2.4-2.2-3.6-4.5-3.6c-1.9,0-3.7,0.6-5.5,1.8l12.7-8.7
						c1.8-1.2,3.6-1.8,5.5-1.8c2.2,0,3.7,1.2,4.5,3.6C244.2,75.5,244.3,79.2,243.9,84.3"/>
				</g>
			</g>
			<g class="st0">
				<defs>
					<path id="SVGID_21_" class="st0" d="M219.6,63.2l12.7-8.7c-2.6,1.8-5,4.1-7.2,6.8L212.3,70C214.6,67.2,217,64.9,219.6,63.2z"/>
				</defs>
				<clipPath id="SVGID_22_">
					<use xlink:href="#SVGID_21_"  style="overflow:visible;"/>
				</clipPath>
				<g class="st17">
					<path class="st3" d="M225.1,61.3L212.3,70c2.2-2.8,4.6-5.1,7.2-6.8l12.7-8.7C229.7,56.3,227.3,58.5,225.1,61.3"/>
				</g>
			</g>
			<g>
				<polygon class="st1" points="240.6,123.6 227.8,132.2 231.1,93 243.9,84.3 				"/>
			</g>
			<g>
				<polygon class="st1" points="262.2,123.6 249.5,132.2 227.8,132.2 240.6,123.6 				"/>
			</g>
			<g>
				<polygon class="st1" points="198.3,123.6 185.5,132.2 191.1,59.8 203.8,51.1 				"/>
			</g>
			<g>
				<polygon class="st1" points="220.1,123.6 207.3,132.2 185.5,132.2 198.3,123.6 				"/>
			</g>
			<g>
				<path class="st4" d="M248.1,49.7c6.8,0,11.6,2.4,14.6,7.2c2.9,4.8,4,12.2,3.2,22.3l-3.6,44.3h-21.7l3.3-39.3
					c0.4-5,0.3-8.7-0.4-11.1c-0.7-2.4-2.2-3.6-4.5-3.6c-3.7,0-7.3,2.4-10.7,7.3c-3.5,4.8-5.5,11.5-6.2,19.9l-2,26.8h-21.8l5.6-72.5
					h21.7l-0.7,10.1l0.3,0.2C231.2,53.6,238.9,49.7,248.1,49.7z"/>
			</g>
		</g>
		<g class="st0">
			<g>
				<polygon class="st1" points="165.8,56.1 153.1,64.8 153.4,59.8 166.2,51.1 				"/>
			</g>
			<g>
				<polygon class="st1" points="164.9,76.9 152.1,85.6 152.3,83.5 165.1,74.8 				"/>
			</g>
			<g class="st0">
				<defs>
					<path id="SVGID_23_" class="st0" d="M134.3,80.1l12.7-8.7c1.8-1.2,3.8-1.8,6-1.8c4.7,0,8.7,1.7,12,5.2l-12.7,8.7
						c-3.4-3.5-7.4-5.2-12-5.2C138.1,78.3,136.1,78.9,134.3,80.1z"/>
				</defs>
				<clipPath id="SVGID_24_">
					<use xlink:href="#SVGID_23_"  style="overflow:visible;"/>
				</clipPath>
				<g class="st18">
					<path class="st3" d="M165.1,74.8l-12.7,8.7c-3.4-3.5-7.4-5.2-12-5.2c-2.2,0-4.2,0.6-6,1.8l12.7-8.7c1.8-1.2,3.8-1.8,6-1.8
						C157.7,69.6,161.7,71.3,165.1,74.8"/>
				</g>
			</g>
			<g>
				<polygon class="st1" points="161.6,112.9 148.8,121.6 148.4,121.4 161.1,112.7 				"/>
			</g>
			<g class="st0">
				<defs>
					<path id="SVGID_25_" class="st0" d="M153.3,103.3l-12.7,8.7c1.9-1.3,3.7-3.2,5.4-5.7c3.4-5.1,5.5-12,6.2-20.7l12.7-8.7
						c-0.8,8.7-2.8,15.6-6.2,20.7C156.9,100.1,155.1,102,153.3,103.3z"/>
				</defs>
				<clipPath id="SVGID_26_">
					<use xlink:href="#SVGID_25_"  style="overflow:visible;"/>
				</clipPath>
				<g class="st19">
					<path class="st3" d="M153.3,103.3l-12.7,8.7c1.9-1.3,3.7-3.2,5.4-5.7c3.4-5.1,5.5-12,6.2-20.7l12.7-8.7
						c-0.8,8.7-2.8,15.6-6.2,20.7C156.9,100.1,155.1,102,153.3,103.3"/>
				</g>
			</g>
			<g>
				<polygon class="st1" points="160.8,123.6 148,132.2 148.8,121.6 161.6,112.9 				"/>
			</g>
			<g>
				<polygon class="st1" points="182.7,123.6 170,132.2 148,132.2 160.8,123.6 				"/>
			</g>
			<g class="st0">
				<defs>
					<path id="SVGID_27_" class="st0" d="M153.2,121.3l-12.7,8.7c-3.5,2.4-7.5,3.6-11.9,3.6c-7.4,0-13.2-2.8-17.5-8.3
						c-4.3-5.5-6.6-12.6-7-21.4c-0.6-12.8,2.2-23.6,8.3-32.4c2.5-3.7,5.4-6.5,8.5-8.7l12.7-8.7c-3.1,2.1-6,5-8.5,8.7
						c-6.1,8.7-8.8,19.5-8.3,32.4c0.4,8.7,2.7,15.8,7,21.4c4.3,5.5,10.1,8.3,17.5,8.3C145.7,124.9,149.7,123.7,153.2,121.3z"/>
				</defs>
				<clipPath id="SVGID_28_">
					<use xlink:href="#SVGID_27_"  style="overflow:visible;"/>
				</clipPath>
				<g class="st20">
					<path class="st3" d="M153.2,121.3l-12.7,8.7c-3.5,2.4-7.5,3.6-11.9,3.6c-7.4,0-13.2-2.8-17.5-8.3c-4.3-5.5-6.6-12.6-7-21.4
						c-0.6-12.8,2.2-23.6,8.3-32.4c2.5-3.7,5.4-6.5,8.5-8.7l12.7-8.7c-3.1,2.1-6,5-8.5,8.7c-6.1,8.7-8.8,19.5-8.3,32.4
						c0.4,8.7,2.7,15.8,7,21.4c4.3,5.5,10.1,8.3,17.5,8.3C145.7,124.9,149.7,123.7,153.2,121.3"/>
				</g>
			</g>
			<g>
				<path class="st4" d="M166.2,51.1h22l-5.4,72.5h-22l0.8-10.7l-0.4-0.2c-5.2,8.1-11.8,12.2-19.8,12.2c-7.4,0-13.2-2.8-17.5-8.3
					c-4.3-5.5-6.6-12.6-7-21.4c-0.6-12.8,2.2-23.6,8.3-32.4c6.1-8.7,13.8-13.1,23.2-13.1c7.2,0,12.8,2.1,17,6.4h0.4L166.2,51.1z
					 M164.9,76.9l0.2-2.1c-3.4-3.5-7.4-5.2-12-5.2c-4.6,0-8.1,2.5-10.8,7.6c-2.6,5-3.8,10.5-3.5,16.5c0.2,3.5,1,6.2,2.6,8.4
					c1.6,2.1,3.6,3.2,6,3.2c4.1,0,7.8-2.5,11.2-7.6C162,92.5,164.1,85.6,164.9,76.9"/>
			</g>
		</g>
		<g class="st0">
			<g class="st0">
				<defs>
					<path id="SVGID_29_" class="st0" d="M50.5,52.1l12.7-8.7c3.6-2.5,7.8-3.7,12.5-3.7c7.6,0,14,4.5,19.2,13.5l-12.7,8.7
						c-5.3-9-11.7-13.5-19.2-13.5C58.3,48.3,54.2,49.6,50.5,52.1z"/>
				</defs>
				<clipPath id="SVGID_30_">
					<use xlink:href="#SVGID_29_"  style="overflow:visible;"/>
				</clipPath>
				<g class="st21">
					<path class="st3" d="M95,53.2l-12.7,8.7c-5.3-9-11.7-13.5-19.2-13.5c-4.7,0-8.9,1.2-12.5,3.7l12.7-8.7
						c3.6-2.5,7.8-3.7,12.5-3.7C83.4,39.7,89.8,44.2,95,53.2"/>
				</g>
			</g>
			<g class="st0">
				<defs>
					<path id="SVGID_31_" class="st0" d="M82.9,97.8l-12.7,8.7c2.4-1.7,4.7-3.8,6.8-6.4l12.7-8.7C87.6,94,85.3,96.2,82.9,97.8z"/>
				</defs>
				<clipPath id="SVGID_32_">
					<use xlink:href="#SVGID_31_"  style="overflow:visible;"/>
				</clipPath>
				<g class="st22">
					<path class="st3" d="M82.9,97.8l-12.7,8.7c2.4-1.7,4.7-3.8,6.8-6.4l12.7-8.7C87.6,94,85.3,96.2,82.9,97.8"/>
				</g>
			</g>
			<g class="st0">
				<defs>
					<path id="SVGID_33_" class="st0" d="M95.8,116.9l-12.7,8.7c-7.8,5.3-17,8-27.5,8c-12.5,0-22.8-3.8-31-11.5
						c-8.2-7.7-12.6-18.6-13.2-32.8C10.6,71.4,15,56.3,24.6,44c3.3-4.2,6.9-7.6,11-10.4L48.3,25c-4,2.8-7.7,6.2-11,10.4
						c-9.6,12.2-14,27.3-13.2,45.2c0.6,14.2,5.1,25.2,13.2,32.8c8.1,7.7,18.5,11.5,31,11.5C78.9,124.9,88.1,122.2,95.8,116.9z"/>
				</defs>
				<clipPath id="SVGID_34_">
					<use xlink:href="#SVGID_33_"  style="overflow:visible;"/>
				</clipPath>
				<g class="st23">
					<path class="st3" d="M95.8,116.9l-12.7,8.7c-7.8,5.3-17,8-27.5,8c-12.5,0-22.8-3.8-31-11.5c-8.2-7.7-12.6-18.6-13.2-32.8
						C10.6,71.4,15,56.3,24.6,44c3.3-4.2,6.9-7.6,11-10.4L48.3,25c-4,2.8-7.7,6.2-11,10.4c-9.6,12.2-14,27.3-13.2,45.2
						c0.6,14.2,5.1,25.2,13.2,32.8c8.1,7.7,18.5,11.5,31,11.5C78.9,124.9,88.1,122.2,95.8,116.9"/>
				</g>
			</g>
			<g>
				<path class="st4" d="M76.1,17c6.8,0,13.4,1.7,19.9,5.2c6.5,3.5,12.1,9,16.9,16.8L95,53.2c-5.3-9-11.7-13.5-19.2-13.5
					c-8.5,0-15.3,4.1-20.3,12.2c-5,8.1-7.3,17.4-6.8,27.9c0.3,7.1,2.3,12.6,5.8,16.5c3.6,3.9,8.4,5.9,14.4,5.9
					c8.2,0,15.2-3.6,20.7-10.7l17,15.4c-9.6,12.1-22.4,18.1-38.3,18.1c-12.5,0-22.8-3.8-31-11.5c-8.2-7.7-12.6-18.6-13.2-32.8
					c-0.8-17.9,3.6-33,13.2-45.2C47,23.1,59.9,17,76.1,17z"/>
			</g>
		</g>
	</g>
</g>
</svg>
