<svg width="521" height="162" viewBox="0 0 521 162" fill="none" xmlns="http://www.w3.org/2000/svg">
<path d="M7.51949 29.558H42.0255C46.6695 29.558 50.0715 30.152 52.2315 31.34C54.4995 32.42 55.9575 34.148 56.6055 36.524C57.3615 38.792 57.7395 41.654 57.7395 45.11V70.382C57.7395 74.27 57.4155 77.942 56.7675 81.398C56.1195 84.746 54.4455 87.5 51.7455 89.66C49.0455 91.712 44.6175 92.738 38.4615 92.738H21.4515V129.998H7.51949V29.558ZM34.0875 81.722C37.3275 81.722 39.7575 80.858 41.3775 79.13C42.9975 77.402 43.8075 74.432 43.8075 70.22V51.266C43.8075 46.946 43.2135 44.084 42.0255 42.68C40.8375 41.276 38.6235 40.574 35.3835 40.574H21.4515V81.722H34.0875ZM69.0681 129.998V53.858H82.6761V129.998H69.0681ZM75.8721 45.272C72.7401 45.272 70.6881 44.84 69.7161 43.976C68.8521 43.004 68.4201 41.33 68.4201 38.954C68.4201 36.362 68.8521 34.634 69.7161 33.77C70.6881 32.798 72.7401 32.312 75.8721 32.312C79.1121 32.312 81.1641 32.798 82.0281 33.77C82.8921 34.634 83.3241 36.362 83.3241 38.954C83.3241 41.33 82.8921 43.004 82.0281 43.976C81.1641 44.84 79.1121 45.272 75.8721 45.272ZM129.771 129.998L114.219 90.956L129.447 53.858H141.111L126.207 90.956L141.435 129.998H129.771ZM91.5393 129.998L106.929 90.956L91.8633 53.858H103.689L118.917 90.956L103.365 129.998H91.5393ZM111.303 97.112V86.096H121.995V97.112H111.303ZM171.012 130.646C164.316 130.646 159.24 129.782 155.784 128.054C152.328 126.326 150.006 124.058 148.818 121.25C147.63 118.442 147.036 115.472 147.036 112.34V71.354C147.036 68.114 147.63 65.144 148.818 62.444C150.114 59.636 152.49 57.368 155.946 55.64C159.51 53.912 164.748 53.048 171.66 53.048C178.032 53.048 183 53.912 186.564 55.64C190.128 57.26 192.612 59.42 194.016 62.12C195.528 64.82 196.284 67.844 196.284 71.192V87.716L182.676 88.526V73.622C182.676 70.598 181.758 68.168 179.922 66.332C178.086 64.388 175.332 63.416 171.66 63.416C168.096 63.416 165.342 64.388 163.398 66.332C161.562 68.168 160.644 70.598 160.644 73.622V109.748C160.644 112.772 161.562 115.202 163.398 117.038C165.234 118.766 167.718 119.63 170.85 119.63C174.954 119.63 177.924 118.712 179.76 116.876C181.704 115.04 182.676 112.394 182.676 108.938V102.62L196.284 101.486V111.206C196.284 114.77 195.528 118.064 194.016 121.088C192.612 124.004 190.074 126.326 186.402 128.054C182.73 129.782 177.6 130.646 171.012 130.646ZM148.818 94.034V86.744H196.284V94.034H148.818ZM210.505 28.748H224.113V129.998H210.505V28.748ZM262.295 130.646C255.599 130.646 250.523 129.782 247.067 128.054C243.611 126.326 241.289 124.058 240.101 121.25C238.913 118.442 238.319 115.472 238.319 112.34V71.354C238.319 68.114 238.913 65.144 240.101 62.444C241.397 59.636 243.773 57.368 247.229 55.64C250.793 53.912 256.031 53.048 262.943 53.048C269.315 53.048 274.283 53.912 277.847 55.64C281.411 57.26 283.895 59.42 285.299 62.12C286.811 64.82 287.567 67.844 287.567 71.192V87.716L273.959 88.526V73.622C273.959 70.598 273.041 68.168 271.205 66.332C269.369 64.388 266.615 63.416 262.943 63.416C259.379 63.416 256.625 64.388 254.681 66.332C252.845 68.168 251.927 70.598 251.927 73.622V109.748C251.927 112.772 252.845 115.202 254.681 117.038C256.517 118.766 259.001 119.63 262.133 119.63C266.237 119.63 269.207 118.712 271.043 116.876C272.987 115.04 273.959 112.394 273.959 108.938V102.62L287.567 101.486V111.206C287.567 114.77 286.811 118.064 285.299 121.088C283.895 124.004 281.357 126.326 277.685 128.054C274.013 129.782 268.883 130.646 262.295 130.646ZM240.101 94.034V86.744H287.567V94.034H240.101ZM294.337 53.858H308.107L321.715 103.592L334.027 53.858H344.881L357.355 102.296L370.963 53.858H384.571L363.187 129.998H354.439L339.535 74.756L324.631 129.998H315.721L294.337 53.858Z" fill="white"/>
<path d="M388.011 128.638C386.931 128.638 386.301 128.458 386.121 128.098C385.941 127.738 385.851 127.198 385.851 126.478C385.851 125.698 385.941 125.128 386.121 124.768C386.301 124.348 386.931 124.138 388.011 124.138C389.091 124.138 389.721 124.348 389.901 124.768C390.141 125.128 390.261 125.698 390.261 126.478C390.261 127.198 390.141 127.738 389.901 128.098C389.661 128.458 389.031 128.638 388.011 128.638ZM412.587 129.358C409.227 129.358 406.677 128.878 404.937 127.918C403.197 126.958 402.027 125.728 401.427 124.228C400.827 122.728 400.527 121.228 400.527 119.728V95.878C400.527 94.318 400.827 92.818 401.427 91.378C402.027 89.878 403.227 88.648 405.027 87.688C406.887 86.728 409.617 86.248 413.217 86.248C416.637 86.248 419.247 86.728 421.047 87.688C422.847 88.588 424.077 89.788 424.737 91.288C425.457 92.728 425.817 94.258 425.817 95.878V101.998L421.317 102.628V96.598C421.317 94.318 420.567 92.608 419.067 91.468C417.627 90.328 415.647 89.758 413.127 89.758C410.667 89.758 408.687 90.328 407.187 91.468C405.747 92.608 405.027 94.318 405.027 96.598V118.918C405.027 121.198 405.747 122.908 407.187 124.048C408.627 125.128 410.427 125.668 412.587 125.668C415.407 125.668 417.567 125.098 419.067 123.958C420.567 122.758 421.317 120.868 421.317 118.288V112.978L425.817 112.438V118.648C425.817 120.568 425.457 122.338 424.737 123.958C424.017 125.578 422.697 126.898 420.777 127.918C418.917 128.878 416.187 129.358 412.587 129.358ZM446.688 129.358C443.328 129.358 440.778 128.878 439.038 127.918C437.298 126.958 436.128 125.728 435.528 124.228C434.928 122.728 434.628 121.228 434.628 119.728V95.878C434.628 94.318 434.928 92.818 435.528 91.378C436.128 89.878 437.328 88.648 439.128 87.688C440.988 86.728 443.718 86.248 447.318 86.248C450.738 86.248 453.348 86.728 455.148 87.688C456.948 88.588 458.178 89.788 458.838 91.288C459.558 92.728 459.918 94.258 459.918 95.878V118.648C459.918 120.568 459.558 122.338 458.838 123.958C458.118 125.578 456.798 126.898 454.878 127.918C453.018 128.878 450.288 129.358 446.688 129.358ZM446.688 125.668C449.508 125.668 451.668 125.098 453.168 123.958C454.668 122.758 455.418 120.868 455.418 118.288V96.598C455.418 94.318 454.668 92.608 453.168 91.468C451.728 90.328 449.748 89.758 447.228 89.758C444.768 89.758 442.788 90.328 441.288 91.468C439.848 92.608 439.128 94.318 439.128 96.598V118.918C439.128 121.198 439.848 122.908 441.288 124.048C442.728 125.128 444.528 125.668 446.688 125.668ZM469.891 128.998V86.518H473.491L473.941 90.928C474.901 89.428 476.221 88.258 477.901 87.418C479.641 86.518 481.771 86.068 484.291 86.068C486.751 86.068 488.701 86.398 490.141 87.058C491.641 87.718 492.781 88.588 493.561 89.668C494.341 90.688 494.821 91.768 495.001 92.908L493.921 93.718C494.281 91.798 495.031 90.298 496.171 89.218C497.371 88.078 498.781 87.268 500.401 86.788C502.021 86.308 503.611 86.068 505.171 86.068C508.291 86.068 510.601 86.578 512.101 87.598C513.601 88.558 514.621 89.758 515.161 91.198C515.701 92.578 515.971 93.928 515.971 95.248V128.998H511.471V96.778C511.471 94.258 510.721 92.458 509.221 91.378C507.721 90.298 505.771 89.758 503.371 89.758C501.091 89.758 499.141 90.298 497.521 91.378C495.961 92.458 495.181 94.258 495.181 96.778V128.998H490.681V96.688C490.681 94.228 489.931 92.458 488.431 91.378C486.931 90.298 484.951 89.758 482.491 89.758C480.271 89.758 478.531 90.208 477.271 91.108C476.071 91.948 475.111 93.028 474.391 94.348V128.998H469.891Z" fill="white"/>
</svg>
