<svg xmlns="http://www.w3.org/2000/svg" version="1.1" xmlns:xlink="http://www.w3.org/1999/xlink"
  xmlns:svgjs="http://svgjs.dev/svgjs" viewBox="0 0 1422 800">
  <defs>
    <linearGradient x1="50%" y1="0%" x2="50%" y2="100%" id="oooscillate-grad">
      <stop stop-color="hsl(206, 75%, 49%)" stop-opacity="1" offset="0%"></stop>
      <stop stop-color="hsl(331, 90%, 56%)" stop-opacity="1" offset="100%"></stop>
    </linearGradient>
  </defs>
  <g stroke-width="2.5" stroke="url(#oooscillate-grad)" fill="transparent" stroke-linecap="round">
    <path d="M 0 1023 Q 355.5 95 711 400 Q 1066.5 705 1422 1023" opacity="0.50"></path>
    <path d="M 0 990 Q 355.5 95 711 400 Q 1066.5 705 1422 990" opacity="0.60"></path>
    <path d="M 0 957 Q 355.5 95 711 400 Q 1066.5 705 1422 957" opacity="0.35"></path>
    <path d="M 0 924 Q 355.5 95 711 400 Q 1066.5 705 1422 924" opacity="0.84"></path>
    <path d="M 0 891 Q 355.5 95 711 400 Q 1066.5 705 1422 891" opacity="0.99"></path>
    <path d="M 0 858 Q 355.5 95 711 400 Q 1066.5 705 1422 858" opacity="0.29"></path>
    <path d="M 0 825 Q 355.5 95 711 400 Q 1066.5 705 1422 825" opacity="0.74"></path>
    <path d="M 0 792 Q 355.5 95 711 400 Q 1066.5 705 1422 792" opacity="0.89"></path>
    <path d="M 0 759 Q 355.5 95 711 400 Q 1066.5 705 1422 759" opacity="0.39"></path>
    <path d="M 0 726 Q 355.5 95 711 400 Q 1066.5 705 1422 726" opacity="0.82"></path>
    <path d="M 0 693 Q 355.5 95 711 400 Q 1066.5 705 1422 693" opacity="0.95"></path>
    <path d="M 0 660 Q 355.5 95 711 400 Q 1066.5 705 1422 660" opacity="0.10"></path>
    <path d="M 0 627 Q 355.5 95 711 400 Q 1066.5 705 1422 627" opacity="0.25"></path>
    <path d="M 0 594 Q 355.5 95 711 400 Q 1066.5 705 1422 594" opacity="0.14"></path>
    <path d="M 0 561 Q 355.5 95 711 400 Q 1066.5 705 1422 561" opacity="0.79"></path>
    <path d="M 0 528 Q 355.5 95 711 400 Q 1066.5 705 1422 528" opacity="0.60"></path>
    <path d="M 0 495 Q 355.5 95 711 400 Q 1066.5 705 1422 495" opacity="0.57"></path>
    <path d="M 0 462 Q 355.5 95 711 400 Q 1066.5 705 1422 462" opacity="0.40"></path>
    <path d="M 0 429 Q 355.5 95 711 400 Q 1066.5 705 1422 429" opacity="0.43"></path>
    <path d="M 0 396 Q 355.5 95 711 400 Q 1066.5 705 1422 396" opacity="0.72"></path>
    <path d="M 0 363 Q 355.5 95 711 400 Q 1066.5 705 1422 363" opacity="0.20"></path>
    <path d="M 0 330 Q 355.5 95 711 400 Q 1066.5 705 1422 330" opacity="0.27"></path>
    <path d="M 0 297 Q 355.5 95 711 400 Q 1066.5 705 1422 297" opacity="0.30"></path>
    <path d="M 0 264 Q 355.5 95 711 400 Q 1066.5 705 1422 264" opacity="0.20"></path>
    <path d="M 0 231 Q 355.5 95 711 400 Q 1066.5 705 1422 231" opacity="0.82"></path>
    <path d="M 0 198 Q 355.5 95 711 400 Q 1066.5 705 1422 198" opacity="0.17"></path>
    <path d="M 0 165 Q 355.5 95 711 400 Q 1066.5 705 1422 165" opacity="0.21"></path>
    <path d="M 0 132 Q 355.5 95 711 400 Q 1066.5 705 1422 132" opacity="0.70"></path>
    <path d="M 0 99 Q 355.5 95 711 400 Q 1066.5 705 1422 99" opacity="0.61"></path>
    <path d="M 0 66 Q 355.5 95 711 400 Q 1066.5 705 1422 66" opacity="0.99"></path>
  </g>
</svg>